<?xml version="1.0" encoding="UTF-8" standalone="no"?>
<!DOCTYPE svg PUBLIC "-//W3C//DTD SVG 1.1//EN"
 "http://www.w3.org/Graphics/SVG/1.1/DTD/svg11.dtd">
<!-- Generated by graphviz version 15.1.0 (20260618.0150)
 -->
<!-- Title: G Pages: 1 -->
<svg style="background-color:#141414" width="1508pt" height="686pt"
 viewBox="0.00 0.00 1508.00 686.00" xmlns="http://www.w3.org/2000/svg" xmlns:xlink="http://www.w3.org/1999/xlink">
<g id="graph0" class="graph" transform="scale(1 1) rotate(0) translate(4 681.71)">
<title>G</title><style>.edge>path:hover{stroke-width:8}</style>
<polygon fill="#141414" stroke="none" points="-4,4 -4,-681.71 1504.24,-681.71 1504.24,4 -4,4"/>
<!-- _cffi_backend -->
<g id="node1" class="node">
<title>_cffi_backend</title><style>.edge>path:hover{stroke-width:8}</style>
<polygon fill="#ce3b3b" stroke="#ffffff" points="590.5,-187.71 587.5,-191.71 566.5,-191.71 563.5,-187.71 514.5,-187.71 514.5,-151.71 590.5,-151.71 590.5,-187.71"/>
<text xml:space="preserve" text-anchor="middle" x="552.5" y="-166.21" font-family="Helvetica,sans-Serif" font-size="10.00" fill="#e0e0e0">_cffi_backend</text>
</g>
<!-- cffi -->
<g id="node5" class="node">
<title>cffi</title><style>.edge>path:hover{stroke-width:8}</style>
<polygon fill="#5a5a5a" stroke="#ffffff" points="770.5,-182.71 767.5,-186.71 746.5,-186.71 743.5,-182.71 716.5,-182.71 716.5,-146.71 770.5,-146.71 770.5,-182.71"/>
<text xml:space="preserve" text-anchor="middle" x="743.5" y="-161.21" font-family="Helvetica,sans-Serif" font-size="10.00" fill="#e0e0e0">cffi</text>
</g>
<!-- _cffi_backend&#45;&gt;cffi -->
<g id="edge1" class="edge">
<title>_cffi_backend&#45;&gt;cffi</title><style>.edge>path:hover{stroke-width:8}</style>
<path fill="none" stroke="#ffffff" d="M590.73,-167.34C609.33,-166.66 632.16,-166.59 652.5,-168.71"/>
</g>
<!-- _distutils_hack -->
<g id="node2" class="node">
<title>_distutils_hack</title><style>.edge>path:hover{stroke-width:8}</style>
<polygon fill="#c26447" stroke="#ffffff" points="441.12,-293.71 438.12,-297.71 417.12,-297.71 414.12,-293.71 359.88,-293.71 359.88,-257.71 441.12,-257.71 441.12,-293.71"/>
<text xml:space="preserve" text-anchor="middle" x="400.5" y="-272.21" font-family="Helvetica,sans-Serif" font-size="10.00" fill="#e0e0e0">_distutils_hack</text>
</g>
<!-- setuptools -->
<g id="node20" class="node">
<title>setuptools</title><style>.edge>path:hover{stroke-width:8}</style>
<polygon fill="#5a5a5a" stroke="#ffffff" points="583,-354.71 580,-358.71 559,-358.71 556,-354.71 522,-354.71 522,-318.71 583,-318.71 583,-354.71"/>
<text xml:space="preserve" text-anchor="middle" x="552.5" y="-333.21" font-family="Helvetica,sans-Serif" font-size="10.00" fill="#e0e0e0">setuptools</text>
</g>
<!-- _distutils_hack&#45;&gt;setuptools -->
<g id="edge2" class="edge">
<title>_distutils_hack&#45;&gt;setuptools</title><style>.edge>path:hover{stroke-width:8}</style>
<path fill="none" stroke="#ffffff" d="M426.46,-294.07C431.65,-298.32 436.92,-302.99 441.5,-307.71 460.06,-326.86 450.87,-357.16 477.5,-355.71"/>
<path fill="none" stroke="#ffffff" d="M478.5,-355.71C489.16,-355.13 500.43,-353 510.85,-350.35"/>
<polygon fill="#c26447" stroke="#ffffff" points="511.58,-353.78 520.28,-347.74 509.71,-347.03 511.58,-353.78"/>
</g>
<!-- _pytest -->
<g id="node3" class="node">
<title>_pytest</title><style>.edge>path:hover{stroke-width:8}</style>
<polygon fill="#f97606" stroke="#ffffff" points="579.5,-449.71 576.5,-453.71 555.5,-453.71 552.5,-449.71 525.5,-449.71 525.5,-413.71 579.5,-413.71 579.5,-449.71"/>
<text xml:space="preserve" text-anchor="middle" x="552.5" y="-428.21" font-family="Helvetica,sans-Serif" font-size="10.00" fill="#e0e0e0">_pytest</text>
</g>
<!-- py -->
<g id="node13" class="node">
<title>py</title><style>.edge>path:hover{stroke-width:8}</style>
<polygon fill="#5a5a5a" stroke="#ffffff" points="860.5,-449.71 857.5,-453.71 836.5,-453.71 833.5,-449.71 806.5,-449.71 806.5,-413.71 860.5,-413.71 860.5,-449.71"/>
<text xml:space="preserve" text-anchor="middle" x="833.5" y="-428.21" font-family="Helvetica,sans-Serif" font-size="10.00" fill="#e0e0e0">py</text>
</g>
<!-- _pytest&#45;&gt;py -->
<g id="edge3" class="edge">
<title>_pytest&#45;&gt;py</title><style>.edge>path:hover{stroke-width:8}</style>
<path fill="none" stroke="#ffffff" d="M591.46,-431.71C644.88,-431.71 741.65,-431.71 794.88,-431.71"/>
<polygon fill="#f97606" stroke="#ffffff" points="591.51,-428.21 581.51,-431.71 591.51,-435.21 591.51,-428.21"/>
<polygon fill="#f97606" stroke="#ffffff" points="794.66,-435.21 804.66,-431.71 794.66,-428.21 794.66,-435.21"/>
</g>
<!-- pytest -->
<g id="node18" class="node">
<title>pytest</title><style>.edge>path:hover{stroke-width:8}</style>
<polygon fill="#5a5a5a" stroke="#ffffff" points="770.5,-274.71 767.5,-278.71 746.5,-278.71 743.5,-274.71 716.5,-274.71 716.5,-238.71 770.5,-238.71 770.5,-274.71"/>
<text xml:space="preserve" text-anchor="middle" x="743.5" y="-253.21" font-family="Helvetica,sans-Serif" font-size="10.00" fill="#e0e0e0">pytest</text>
</g>
<!-- _pytest&#45;&gt;pytest -->
<g id="edge4" class="edge">
<title>_pytest&#45;&gt;pytest</title><style>.edge>path:hover{stroke-width:8}</style>
<path fill="none" stroke="#ffffff" d="M590.62,-420.09C618.05,-410 654.93,-393.15 680.5,-368.71 704.88,-345.41 722.14,-310.37 732.16,-285.71"/>
<polygon fill="#f97606" stroke="#ffffff" points="589.56,-416.75 581.29,-423.37 591.89,-423.35 589.56,-416.75"/>
<polygon fill="#f97606" stroke="#ffffff" points="735.34,-287.18 735.7,-276.59 728.82,-284.65 735.34,-287.18"/>
</g>
<!-- audioop -->
<g id="node4" class="node">
<title>audioop</title><style>.edge>path:hover{stroke-width:8}</style>
<polygon fill="#b3934c" stroke="#ffffff" points="1077.9,-67.71 1074.9,-71.71 1053.9,-71.71 1050.9,-67.71 1023.9,-67.71 1023.9,-31.71 1077.9,-31.71 1077.9,-67.71"/>
<text xml:space="preserve" text-anchor="middle" x="1050.9" y="-46.21" font-family="Helvetica,sans-Serif" font-size="10.00" fill="#e0e0e0">audioop</text>
</g>
<!-- pydub -->
<g id="node15" class="node">
<title>pydub</title><style>.edge>path:hover{stroke-width:8}</style>
<polygon fill="#5a5a5a" stroke="#ffffff" points="1211.03,-67.71 1208.03,-71.71 1187.03,-71.71 1184.03,-67.71 1157.03,-67.71 1157.03,-31.71 1211.03,-31.71 1211.03,-67.71"/>
<text xml:space="preserve" text-anchor="middle" x="1184.03" y="-46.21" font-family="Helvetica,sans-Serif" font-size="10.00" fill="#e0e0e0">pydub</text>
</g>
<!-- audioop&#45;&gt;pydub -->
<g id="edge5" class="edge">
<title>audioop&#45;&gt;pydub</title><style>.edge>path:hover{stroke-width:8}</style>
<path fill="none" stroke="#ffffff" d="M1078.12,-49.71C1097.42,-49.71 1123.93,-49.71 1145.47,-49.71"/>
<polygon fill="#b3934c" stroke="#ffffff" points="1145.34,-53.21 1155.34,-49.71 1145.34,-46.21 1145.34,-53.21"/>
</g>
<!-- scipy -->
<g id="node19" class="node">
<title>scipy</title><style>.edge>path:hover{stroke-width:8}</style>
<polygon fill="#5a5a5a" stroke="#ffffff" points="1077.9,-159.71 1074.9,-163.71 1053.9,-163.71 1050.9,-159.71 1023.9,-159.71 1023.9,-123.71 1077.9,-123.71 1077.9,-159.71"/>
<text xml:space="preserve" text-anchor="middle" x="1050.9" y="-138.21" font-family="Helvetica,sans-Serif" font-size="10.00" fill="#e0e0e0">scipy</text>
</g>
<!-- cffi&#45;&gt;scipy -->
<g id="edge6" class="edge">
<title>cffi&#45;&gt;scipy</title><style>.edge>path:hover{stroke-width:8}</style>
<path fill="none" stroke="#ffffff" d="M770.7,-171.08C809.12,-179.21 882.53,-190.17 941.2,-171.71"/>
<path fill="none" stroke="#ffffff" d="M943.2,-171.71C966.16,-164.09 992.3,-156.72 1012.96,-151.19"/>
<polygon fill="#5a5a5a" stroke="#ffffff" points="1013.59,-154.64 1022.36,-148.7 1011.8,-147.88 1013.59,-154.64"/>
</g>
<!-- charset_normalizer -->
<g id="node6" class="node">
<title>charset_normalizer</title><style>.edge>path:hover{stroke-width:8}</style>
<polygon fill="#5a5a5a" stroke="#ffffff" points="191.75,-193.71 188.75,-197.71 167.75,-197.71 164.75,-193.71 93.25,-193.71 93.25,-157.71 191.75,-157.71 191.75,-193.71"/>
<text xml:space="preserve" text-anchor="middle" x="142.5" y="-172.21" font-family="Helvetica,sans-Serif" font-size="10.00" fill="#e0e0e0">charset_normalizer</text>
</g>
<!-- numpy -->
<g id="node10" class="node">
<title>numpy</title><style>.edge>path:hover{stroke-width:8}</style>
<polygon fill="#5a5a5a" stroke="#ffffff" points="427.5,-239.71 424.5,-243.71 403.5,-243.71 400.5,-239.71 373.5,-239.71 373.5,-203.71 427.5,-203.71 427.5,-239.71"/>
<text xml:space="preserve" text-anchor="middle" x="400.5" y="-218.21" font-family="Helvetica,sans-Serif" font-size="10.00" fill="#e0e0e0">numpy</text>
</g>
<!-- charset_normalizer&#45;&gt;numpy -->
<g id="edge7" class="edge">
<title>charset_normalizer&#45;&gt;numpy</title><style>.edge>path:hover{stroke-width:8}</style>
<path fill="none" stroke="#ffffff" d="M228.75,-221.71C274.1,-227.69 326.82,-226.46 361.54,-224.54"/>
<polygon fill="#5a5a5a" stroke="#ffffff" points="361.75,-228.04 371.52,-223.94 361.33,-221.05 361.75,-228.04"/>
<path fill="none" stroke="#ffffff" d="M172.21,-194.08C191.77,-206.07 216.15,-219.84 227.75,-221.71"/>
</g>
<!-- colorama -->
<g id="node7" class="node">
<title>colorama</title><style>.edge>path:hover{stroke-width:8}</style>
<polygon fill="#5a5a5a" stroke="#ffffff" points="428.38,-477.71 425.38,-481.71 404.38,-481.71 401.38,-477.71 372.62,-477.71 372.62,-441.71 428.38,-441.71 428.38,-477.71"/>
<text xml:space="preserve" text-anchor="middle" x="400.5" y="-456.21" font-family="Helvetica,sans-Serif" font-size="10.00" fill="#e0e0e0">colorama</text>
</g>
<!-- colorama&#45;&gt;_pytest -->
<g id="edge8" class="edge">
<title>colorama&#45;&gt;_pytest</title><style>.edge>path:hover{stroke-width:8}</style>
<path fill="none" stroke="#ffffff" d="M478.5,-431.71C489.68,-427.97 502.37,-426.95 514,-427.16"/>
<polygon fill="#5a5a5a" stroke="#ffffff" points="513.5,-430.64 523.66,-427.66 513.86,-423.65 513.5,-430.64"/>
</g>
<!-- tqdm -->
<g id="node25" class="node">
<title>tqdm</title><style>.edge>path:hover{stroke-width:8}</style>
<polygon fill="#5a5a5a" stroke="#ffffff" points="680.5,-359.71 677.5,-363.71 656.5,-363.71 653.5,-359.71 626.5,-359.71 626.5,-323.71 680.5,-323.71 680.5,-359.71"/>
<text xml:space="preserve" text-anchor="middle" x="653.5" y="-338.21" font-family="Helvetica,sans-Serif" font-size="10.00" fill="#e0e0e0">tqdm</text>
</g>
<!-- colorama&#45;&gt;tqdm -->
<g id="edge9" class="edge">
<title>colorama&#45;&gt;tqdm</title><style>.edge>path:hover{stroke-width:8}</style>
<path fill="none" stroke="#ffffff" d="M478.5,-431.71C497.47,-425.36 497.3,-414.92 514.5,-404.71 547.29,-385.24 587.13,-367.65 615.56,-356.03"/>
<polygon fill="#5a5a5a" stroke="#ffffff" points="616.86,-359.28 624.83,-352.29 614.24,-352.78 616.86,-359.28"/>
<path fill="none" stroke="#ffffff" d="M428.79,-449.19C443.2,-443.75 461.22,-437.14 477.5,-431.71"/>
</g>
<!-- exceptiongroup -->
<g id="node8" class="node">
<title>exceptiongroup</title><style>.edge>path:hover{stroke-width:8}</style>
<polygon fill="#4fc705" stroke="#ffffff" points="441.5,-623.71 438.5,-627.71 417.5,-627.71 414.5,-623.71 359.5,-623.71 359.5,-587.71 441.5,-587.71 441.5,-623.71"/>
<text xml:space="preserve" text-anchor="middle" x="400.5" y="-602.21" font-family="Helvetica,sans-Serif" font-size="10.00" fill="#e0e0e0">exceptiongroup</text>
</g>
<!-- exceptiongroup&#45;&gt;_pytest -->
<g id="edge10" class="edge">
<title>exceptiongroup&#45;&gt;_pytest</title><style>.edge>path:hover{stroke-width:8}</style>
<path fill="none" stroke="#ffffff" d="M429.26,-587.35C443.96,-577.29 462.1,-564.33 477.5,-551.71"/>
</g>
<!-- iniconfig -->
<g id="node9" class="node">
<title>iniconfig</title><style>.edge>path:hover{stroke-width:8}</style>
<polygon fill="#3cc823" stroke="#ffffff" points="427.5,-569.71 424.5,-573.71 403.5,-573.71 400.5,-569.71 373.5,-569.71 373.5,-533.71 427.5,-533.71 427.5,-569.71"/>
<text xml:space="preserve" text-anchor="middle" x="400.5" y="-548.21" font-family="Helvetica,sans-Serif" font-size="10.00" fill="#e0e0e0">iniconfig</text>
</g>
<!-- iniconfig&#45;&gt;_pytest -->
<g id="edge11" class="edge">
<title>iniconfig&#45;&gt;_pytest</title><style>.edge>path:hover{stroke-width:8}</style>
<path fill="none" stroke="#ffffff" d="M427.88,-559.42C443.94,-562.4 463.93,-562.84 477.5,-551.71"/>
</g>
<!-- numpy&#45;&gt;_pytest -->
<g id="edge12" class="edge">
<title>numpy&#45;&gt;_pytest</title><style>.edge>path:hover{stroke-width:8}</style>
<path fill="none" stroke="#ffffff" d="M427.77,-237.02C432.64,-240.51 437.46,-244.46 441.5,-248.71 453.59,-261.46 508.11,-355.69 535.57,-403.73"/>
<polygon fill="#5a5a5a" stroke="#ffffff" points="532.41,-405.24 540.41,-412.19 538.49,-401.77 532.41,-405.24"/>
</g>
<!-- pyloudnorm -->
<g id="node17" class="node">
<title>pyloudnorm</title><style>.edge>path:hover{stroke-width:8}</style>
<polygon fill="#5a5a5a" stroke="#ffffff" points="1217.15,-159.71 1214.15,-163.71 1193.15,-163.71 1190.15,-159.71 1150.9,-159.71 1150.9,-123.71 1217.15,-123.71 1217.15,-159.71"/>
<text xml:space="preserve" text-anchor="middle" x="1184.03" y="-138.21" font-family="Helvetica,sans-Serif" font-size="10.00" fill="#e0e0e0">pyloudnorm</text>
</g>
<!-- numpy&#45;&gt;pyloudnorm -->
<g id="edge13" class="edge">
<title>numpy&#45;&gt;pyloudnorm</title><style>.edge>path:hover{stroke-width:8}</style>
<path fill="none" stroke="#ffffff" d="M1114.9,-141.71C1122.77,-142.93 1131.2,-143.51 1139.37,-143.7"/>
<polygon fill="#5a5a5a" stroke="#ffffff" points="1139.12,-147.2 1149.13,-143.73 1139.14,-140.2 1139.12,-147.2"/>
</g>
<!-- numpy&#45;&gt;scipy -->
<g id="edge14" class="edge">
<title>numpy&#45;&gt;scipy</title><style>.edge>path:hover{stroke-width:8}</style>
<path fill="none" stroke="#ffffff" d="M943.2,-95.71C968.87,-94.27 995.43,-105.66 1015.63,-117.47"/>
<polygon fill="#5a5a5a" stroke="#ffffff" points="1013.66,-120.37 1024,-122.64 1017.33,-114.41 1013.66,-120.37"/>
</g>
<!-- src -->
<g id="node21" class="node">
<title>src</title><style>.edge>path:hover{stroke-width:8}</style>
<polygon fill="#9053b6" stroke="#ffffff" points="1344.15,-132.71 1341.15,-136.71 1320.15,-136.71 1317.15,-132.71 1290.15,-132.71 1290.15,-96.71 1344.15,-96.71 1344.15,-132.71"/>
<text xml:space="preserve" text-anchor="middle" x="1317.15" y="-111.21" font-family="Helvetica,sans-Serif" font-size="10.00" fill="#e0e0e0">src</text>
</g>
<!-- numpy&#45;&gt;src -->
<g id="edge15" class="edge">
<title>numpy&#45;&gt;src</title><style>.edge>path:hover{stroke-width:8}</style>
<path fill="none" stroke="#ffffff" d="M1114.9,-141.71C1134.67,-144.78 1134.27,-125.82 1150.9,-114.71 1164.7,-105.5 1166.5,-97.1 1183.03,-95.71"/>
<path fill="none" stroke="#ffffff" d="M1185.03,-95.71C1201.56,-94.33 1203.36,-105.5 1217.15,-114.71 1233.79,-125.82 1233.53,-145.56 1253.15,-141.71"/>
<path fill="none" stroke="#ffffff" d="M1254.15,-141.71C1262.65,-140.05 1271.39,-137.11 1279.53,-133.76"/>
<polygon fill="#5a5a5a" stroke="#ffffff" points="1280.71,-137.06 1288.43,-129.81 1277.87,-130.66 1280.71,-137.06"/>
<path fill="none" stroke="#ffffff" d="M943.2,-95.71C1003.57,-92.31 1022.03,-91.63 1077.9,-114.71 1096.39,-122.35 1094.14,-138.65 1113.9,-141.71"/>
</g>
<!-- tests_conftest -->
<g id="node22" class="node">
<title>tests_conftest</title><style>.edge>path:hover{stroke-width:8}</style>
<ellipse fill="#a53db8" stroke="#ffffff" cx="942.2" cy="-217.71" rx="45.7" ry="18"/>
<text xml:space="preserve" text-anchor="middle" x="942.2" y="-214.21" font-family="Helvetica,sans-Serif" font-size="10.00" fill="#e0e0e0">tests.conftest</text>
</g>
<!-- numpy&#45;&gt;tests_conftest -->
<g id="edge16" class="edge">
<title>numpy&#45;&gt;tests_conftest</title><style>.edge>path:hover{stroke-width:8}</style>
<path fill="none" stroke="#ffffff" d="M478.5,-215.71C549.62,-183.42 779.67,-201.34 886.17,-211.82"/>
<polygon fill="#5a5a5a" stroke="#ffffff" points="885.81,-215.3 896.11,-212.82 886.5,-208.34 885.81,-215.3"/>
</g>
<!-- tests_test_main -->
<g id="node23" class="node">
<title>tests_test_main</title><style>.edge>path:hover{stroke-width:8}</style>
<ellipse fill="#7c3a88" stroke="#ffffff" cx="1458.7" cy="-114.71" rx="41.54" ry="22.63"/>
<text xml:space="preserve" text-anchor="middle" x="1458.7" y="-117.21" font-family="Helvetica,sans-Serif" font-size="10.00" fill="#e0e0e0">tests.</text>
<text xml:space="preserve" text-anchor="middle" x="1458.7" y="-105.21" font-family="Helvetica,sans-Serif" font-size="10.00" fill="#e0e0e0">test_main</text>
</g>
<!-- numpy&#45;&gt;tests_test_main -->
<g id="edge17" class="edge">
<title>numpy&#45;&gt;tests_test_main</title><style>.edge>path:hover{stroke-width:8}</style>
<path fill="none" stroke="#ffffff" d="M478.5,-215.71C531.34,-190.22 467.7,-124.09 514.5,-88.71 665.8,25.66 751.69,-103.4 941.2,-95.71"/>
<path fill="none" stroke="#ffffff" d="M1318.15,-68.71C1330.89,-75.23 1332.65,-79.2 1344.15,-87.71 1360.23,-99.61 1360.15,-114.79 1380.15,-114.71"/>
<path fill="none" stroke="#ffffff" d="M427.71,-224.24C442.95,-224.61 462.13,-223.15 477.5,-215.71"/>
<path fill="none" stroke="#ffffff" d="M943.2,-95.71C991.56,-95.34 978.77,-40.1 1023.9,-22.71 1146.6,24.55 1199.11,-8.79 1316.15,-68.71"/>
<path fill="none" stroke="#ffffff" d="M1381.15,-114.71C1389.01,-114.68 1397.32,-114.66 1405.46,-114.66"/>
<polygon fill="#5a5a5a" stroke="#ffffff" points="1405.27,-118.16 1415.27,-114.65 1405.27,-111.16 1405.27,-118.16"/>
</g>
<!-- packaging -->
<g id="node11" class="node">
<title>packaging</title><style>.edge>path:hover{stroke-width:8}</style>
<polygon fill="#10f958" stroke="#ffffff" points="430.62,-385.71 427.62,-389.71 406.62,-389.71 403.62,-385.71 370.38,-385.71 370.38,-349.71 430.62,-349.71 430.62,-385.71"/>
<text xml:space="preserve" text-anchor="middle" x="400.5" y="-364.21" font-family="Helvetica,sans-Serif" font-size="10.00" fill="#e0e0e0">packaging</text>
</g>
<!-- packaging&#45;&gt;_pytest -->
<g id="edge18" class="edge">
<title>packaging&#45;&gt;_pytest</title><style>.edge>path:hover{stroke-width:8}</style>
<path fill="none" stroke="#ffffff" d="M430.78,-380.2C454.8,-390.45 488.94,-405.02 514.79,-416.05"/>
<polygon fill="#10f958" stroke="#ffffff" points="513.34,-419.24 523.91,-419.94 516.09,-412.8 513.34,-419.24"/>
</g>
<!-- packaging&#45;&gt;setuptools -->
<g id="edge19" class="edge">
<title>packaging&#45;&gt;setuptools</title><style>.edge>path:hover{stroke-width:8}</style>
<path fill="none" stroke="#ffffff" d="M430.95,-361.63C444.97,-359.1 462.03,-356.55 477.5,-355.71"/>
</g>
<!-- pluggy -->
<g id="node12" class="node">
<title>pluggy</title><style>.edge>path:hover{stroke-width:8}</style>
<polygon fill="#5a5a5a" stroke="#ffffff" points="427.5,-677.71 424.5,-681.71 403.5,-681.71 400.5,-677.71 373.5,-677.71 373.5,-641.71 427.5,-641.71 427.5,-677.71"/>
<text xml:space="preserve" text-anchor="middle" x="400.5" y="-656.21" font-family="Helvetica,sans-Serif" font-size="10.00" fill="#e0e0e0">pluggy</text>
</g>
<!-- pluggy&#45;&gt;_pytest -->
<g id="edge20" class="edge">
<title>pluggy&#45;&gt;_pytest</title><style>.edge>path:hover{stroke-width:8}</style>
<path fill="none" stroke="#ffffff" d="M427.78,-645.08C432.77,-641.49 437.62,-637.34 441.5,-632.71 466.81,-602.52 447.03,-576.69 477.5,-551.71"/>
</g>
<!-- pycparser -->
<g id="node14" class="node">
<title>pycparser</title><style>.edge>path:hover{stroke-width:8}</style>
<polygon fill="#5a5a5a" stroke="#ffffff" points="581.88,-133.71 578.88,-137.71 557.88,-137.71 554.88,-133.71 523.13,-133.71 523.13,-97.71 581.88,-97.71 581.88,-133.71"/>
<text xml:space="preserve" text-anchor="middle" x="552.5" y="-112.21" font-family="Helvetica,sans-Serif" font-size="10.00" fill="#e0e0e0">pycparser</text>
</g>
<!-- pycparser&#45;&gt;cffi -->
<g id="edge22" class="edge">
<title>pycparser&#45;&gt;cffi</title><style>.edge>path:hover{stroke-width:8}</style>
<path fill="none" stroke="#ffffff" d="M654.5,-168.71C670.99,-170.43 689.28,-169.98 704.91,-168.88"/>
<polygon fill="#5a5a5a" stroke="#ffffff" points="705.07,-172.38 714.75,-168.07 704.49,-165.4 705.07,-172.38"/>
<path fill="none" stroke="#ffffff" d="M581.94,-134.09C605.62,-148.78 637.76,-167.18 652.5,-168.71"/>
</g>
<!-- pydub&#45;&gt;src -->
<g id="edge23" class="edge">
<title>pydub&#45;&gt;src</title><style>.edge>path:hover{stroke-width:8}</style>
<path fill="none" stroke="#ffffff" d="M1254.15,-68.71C1266.97,-72.77 1279.26,-80.71 1289.47,-88.87"/>
<polygon fill="#5a5a5a" stroke="#ffffff" points="1287.18,-91.52 1297.06,-95.33 1291.72,-86.19 1287.18,-91.52"/>
</g>
<!-- pydub&#45;&gt;tests_test_main -->
<g id="edge24" class="edge">
<title>pydub&#45;&gt;tests_test_main</title><style>.edge>path:hover{stroke-width:8}</style>
<path fill="none" stroke="#ffffff" d="M1211.36,-56.6C1224.05,-60.03 1239.46,-64.37 1253.15,-68.71"/>
<path fill="none" stroke="#ffffff" d="M1254.15,-68.71C1280.42,-77.04 1291.63,-56.16 1316.15,-68.71"/>
</g>
<!-- pygments -->
<g id="node16" class="node">
<title>pygments</title><style>.edge>path:hover{stroke-width:8}</style>
<polygon fill="#5a5a5a" stroke="#ffffff" points="323.5,-477.71 320.5,-481.71 299.5,-481.71 296.5,-477.71 264.75,-477.71 264.75,-441.71 323.5,-441.71 323.5,-477.71"/>
<text xml:space="preserve" text-anchor="middle" x="294.12" y="-456.21" font-family="Helvetica,sans-Serif" font-size="10.00" fill="#e0e0e0">pygments</text>
</g>
<!-- pygments&#45;&gt;_pytest -->
<g id="edge25" class="edge">
<title>pygments&#45;&gt;_pytest</title><style>.edge>path:hover{stroke-width:8}</style>
<path fill="none" stroke="#ffffff" d="M323.7,-471.79C349.59,-482.83 385.73,-498.5 399.5,-505.71"/>
</g>
<!-- pyloudnorm&#45;&gt;src -->
<g id="edge26" class="edge">
<title>pyloudnorm&#45;&gt;src</title><style>.edge>path:hover{stroke-width:8}</style>
<path fill="none" stroke="#ffffff" d="M1217.52,-144.35C1228.89,-144.58 1241.68,-144.05 1253.15,-141.71"/>
</g>
<!-- pytest&#45;&gt;numpy -->
<g id="edge28" class="edge">
<title>pytest&#45;&gt;numpy</title><style>.edge>path:hover{stroke-width:8}</style>
<path fill="none" stroke="#ffffff" d="M716.17,-254.06C668.54,-249.25 564.9,-238.77 477.5,-229.71 465,-228.42 451.34,-226.99 439.1,-225.7"/>
<polygon fill="#5a5a5a" stroke="#ffffff" points="439.69,-222.24 429.38,-224.67 438.96,-229.2 439.69,-222.24"/>
</g>
<!-- pytest&#45;&gt;scipy -->
<g id="edge29" class="edge">
<title>pytest&#45;&gt;scipy</title><style>.edge>path:hover{stroke-width:8}</style>
<path fill="none" stroke="#ffffff" d="M770.86,-255.59C788.43,-254.53 811.99,-252.51 832.5,-248.71"/>
<path fill="none" stroke="#ffffff" d="M834.5,-248.71C871.6,-241.84 864.88,-211.3 896.5,-190.71 914.59,-178.94 920.71,-178.52 941.2,-171.71"/>
</g>
<!-- pytest&#45;&gt;tests_conftest -->
<g id="edge30" class="edge">
<title>pytest&#45;&gt;tests_conftest</title><style>.edge>path:hover{stroke-width:8}</style>
<path fill="none" stroke="#ffffff" d="M834.5,-248.71C855.02,-244.91 877.24,-238.79 896.07,-232.98"/>
<polygon fill="#5a5a5a" stroke="#ffffff" points="897.09,-236.33 905.58,-229.98 894.99,-229.66 897.09,-236.33"/>
</g>
<!-- pytest&#45;&gt;tests_test_main -->
<g id="edge31" class="edge">
<title>pytest&#45;&gt;tests_test_main</title><style>.edge>path:hover{stroke-width:8}</style>
<path fill="none" stroke="#ffffff" d="M834.5,-248.71C895.64,-237.38 1051.74,-262.25 1113.9,-263.71"/>
</g>
<!-- scipy&#45;&gt;pyloudnorm -->
<g id="edge32" class="edge">
<title>scipy&#45;&gt;pyloudnorm</title><style>.edge>path:hover{stroke-width:8}</style>
<path fill="none" stroke="#ffffff" d="M1114.9,-179.71C1127.81,-178.55 1140.59,-172.94 1151.53,-166.38"/>
<polygon fill="#5a5a5a" stroke="#ffffff" points="1153.29,-169.41 1159.75,-161.01 1149.46,-163.55 1153.29,-169.41"/>
</g>
<!-- scipy&#45;&gt;src -->
<g id="edge33" class="edge">
<title>scipy&#45;&gt;src</title><style>.edge>path:hover{stroke-width:8}</style>
<path fill="none" stroke="#ffffff" d="M1068.99,-160.18C1080.62,-170.6 1096.93,-181.25 1113.9,-179.71"/>
<path fill="none" stroke="#ffffff" d="M1114.9,-179.71C1147.79,-176.74 1127.88,-138.39 1150.9,-114.71 1162.47,-102.82 1166.5,-97.1 1183.03,-95.71"/>
</g>
<!-- setuptools&#45;&gt;cffi -->
<g id="edge34" class="edge">
<title>setuptools&#45;&gt;cffi</title><style>.edge>path:hover{stroke-width:8}</style>
<path fill="none" stroke="#ffffff" d="M573.73,-318.31C607.55,-287.53 675.65,-225.55 714.21,-190.46"/>
<polygon fill="#5a5a5a" stroke="#ffffff" points="716.26,-193.33 721.3,-184.01 711.55,-188.15 716.26,-193.33"/>
</g>
<!-- src&#45;&gt;tests_test_main -->
<g id="edge35" class="edge">
<title>src&#45;&gt;tests_test_main</title><style>.edge>path:hover{stroke-width:8}</style>
<path fill="none" stroke="#ffffff" d="M1344.4,-114.71C1355.44,-114.71 1368.42,-114.71 1380.15,-114.71"/>
</g>
<!-- tests_conftest&#45;&gt;tests_test_main -->
<g id="edge36" class="edge">
<title>tests_conftest&#45;&gt;tests_test_main</title><style>.edge>path:hover{stroke-width:8}</style>
<path fill="none" stroke="#ffffff" d="M1114.9,-263.71C1229.25,-279.41 1246.75,-203.63 1344.15,-141.71 1361.03,-130.98 1360.15,-114.71 1380.15,-114.71"/>
<path fill="none" stroke="#ffffff" d="M983.67,-225.8C1010.63,-231.56 1046.69,-239.99 1077.9,-249.71 1094.29,-254.82 1097.12,-260.12 1113.9,-263.71"/>
</g>
<!-- tomli -->
<g id="node24" class="node">
<title>tomli</title><style>.edge>path:hover{stroke-width:8}</style>
<polygon fill="#c247b9" stroke="#ffffff" points="321.12,-423.71 318.12,-427.71 297.12,-427.71 294.12,-423.71 267.12,-423.71 267.12,-387.71 321.12,-387.71 321.12,-423.71"/>
<text xml:space="preserve" text-anchor="middle" x="294.12" y="-402.21" font-family="Helvetica,sans-Serif" font-size="10.00" fill="#e0e0e0">tomli</text>
</g>
<!-- tomli&#45;&gt;_pytest -->
<g id="edge37" class="edge">
<title>tomli&#45;&gt;_pytest</title><style>.edge>path:hover{stroke-width:8}</style>
<path fill="none" stroke="#ffffff" d="M478.5,-551.71C508.34,-527.26 529.17,-487.2 540.74,-460.16"/>
<polygon fill="#c247b9" stroke="#ffffff" points="543.86,-461.78 544.42,-451.2 537.38,-459.13 543.86,-461.78"/>
<path fill="none" stroke="#ffffff" d="M401.5,-505.71C418.94,-514.84 424.65,-514.54 441.5,-524.71 458.62,-535.06 462.03,-564.39 477.5,-551.71"/>
<path fill="none" stroke="#ffffff" d="M315.53,-424.07C318.31,-426.87 321.05,-429.8 323.5,-432.71 342.06,-454.79 337.68,-467.84 359.5,-486.71 374.39,-499.59 382.06,-496.58 399.5,-505.71"/>
</g>
<!-- tomli&#45;&gt;setuptools -->
<g id="edge38" class="edge">
<title>tomli&#45;&gt;setuptools</title><style>.edge>path:hover{stroke-width:8}</style>
<path fill="none" stroke="#ffffff" d="M321.46,-409.31C351.96,-412.26 402.95,-413.34 441.5,-394.71 462.74,-384.45 453.95,-356.99 477.5,-355.71"/>
</g>
<!-- tqdm&#45;&gt;src -->
<g id="edge39" class="edge">
<title>tqdm&#45;&gt;src</title><style>.edge>path:hover{stroke-width:8}</style>
<path fill="none" stroke="#ffffff" d="M680.75,-337.19C763.45,-322.24 1024.48,-269.46 1217.15,-168.71 1234.88,-159.45 1233.56,-145.71 1253.15,-141.71"/>
</g>
<!-- typing_extensions -->
<g id="node26" class="node">
<title>typing_extensions</title><style>.edge>path:hover{stroke-width:8}</style>
<polygon fill="#f9107c" stroke="#ffffff" points="189.88,-523.71 186.88,-527.71 165.88,-527.71 162.88,-523.71 95.12,-523.71 95.12,-487.71 189.88,-487.71 189.88,-523.71"/>
<text xml:space="preserve" text-anchor="middle" x="142.5" y="-502.21" font-family="Helvetica,sans-Serif" font-size="10.00" fill="#e0e0e0">typing_extensions</text>
</g>
<!-- typing_extensions&#45;&gt;_pytest -->
<g id="edge40" class="edge">
<title>typing_extensions&#45;&gt;_pytest</title><style>.edge>path:hover{stroke-width:8}</style>
<path fill="none" stroke="#ffffff" d="M228.75,-505.71C262.94,-489.26 365.89,-488.11 399.5,-505.71"/>
</g>
<!-- typing_extensions&#45;&gt;numpy -->
<g id="edge41" class="edge">
<title>typing_extensions&#45;&gt;numpy</title><style>.edge>path:hover{stroke-width:8}</style>
<path fill="none" stroke="#ffffff" d="M295.12,-340.71C331.2,-306.23 323.92,-283.7 359.5,-248.71 361.02,-247.21 362.64,-245.75 364.32,-244.32"/>
<polygon fill="#f9107c" stroke="#ffffff" points="366.09,-247.37 371.84,-238.47 361.8,-241.84 366.09,-247.37"/>
<path fill="none" stroke="#ffffff" d="M190.18,-512.93C202.88,-513 216.28,-511.23 227.75,-505.71"/>
<path fill="none" stroke="#ffffff" d="M228.75,-505.71C281.62,-480.27 238.77,-431.31 264.75,-378.71 274.08,-359.81 277.89,-355.28 293.12,-340.71"/>
</g>
<!-- typing_extensions&#45;&gt;packaging -->
<g id="edge42" class="edge">
<title>typing_extensions&#45;&gt;packaging</title><style>.edge>path:hover{stroke-width:8}</style>
<path fill="none" stroke="#ffffff" d="M295.12,-340.71C313.43,-323.22 341.53,-331.75 363.97,-343.69"/>
<polygon fill="#f9107c" stroke="#ffffff" points="362.1,-346.65 372.51,-348.58 365.57,-340.58 362.1,-346.65"/>
</g>
<!-- typing_extensions&#45;&gt;setuptools -->
<g id="edge43" class="edge">
<title>typing_extensions&#45;&gt;setuptools</title><style>.edge>path:hover{stroke-width:8}</style>
<path fill="none" stroke="#ffffff" d="M295.12,-340.71C342.15,-295.76 377.71,-327.95 441.5,-340.71 458.5,-344.11 460.18,-356.36 477.5,-355.71"/>
</g>
<!-- win32pdh -->
<g id="node27" class="node">
<title>win32pdh</title><style>.edge>path:hover{stroke-width:8}</style>
<polygon fill="#b6536a" stroke="#ffffff" points="57.25,-239.71 54.25,-243.71 33.25,-243.71 30.25,-239.71 0,-239.71 0,-203.71 57.25,-203.71 57.25,-239.71"/>
<text xml:space="preserve" text-anchor="middle" x="28.62" y="-218.21" font-family="Helvetica,sans-Serif" font-size="10.00" fill="#e0e0e0">win32pdh</text>
</g>
<!-- win32pdh&#45;&gt;numpy -->
<g id="edge44" class="edge">
<title>win32pdh&#45;&gt;numpy</title><style>.edge>path:hover{stroke-width:8}</style>
<path fill="none" stroke="#ffffff" d="M57.74,-218.91C96.35,-215.69 167.82,-212.01 227.75,-221.71"/>
</g>
</g>
</svg>

