<?xml version="1.0" encoding="UTF-8" standalone="no"?>
<!DOCTYPE svg PUBLIC "-//W3C//DTD SVG 1.1//EN"
 "http://www.w3.org/Graphics/SVG/1.1/DTD/svg11.dtd">
<!-- Generated by graphviz version 15.1.0 (20260618.0150)
 -->
<!-- Title: G Pages: 1 -->
<svg style="background-color:#141414" width="1510pt" height="573pt"
 viewBox="0.00 0.00 1510.00 573.00" xmlns="http://www.w3.org/2000/svg" xmlns:xlink="http://www.w3.org/1999/xlink">
<g id="graph0" class="graph" transform="scale(1 1) rotate(0) translate(4 568.54)">
<title>G</title><style>.edge>path:hover{stroke-width:8}</style>
<polygon fill="#141414" stroke="none" points="-4,4 -4,-568.54 1505.74,-568.54 1505.74,4 -4,4"/>
<!-- _cffi_backend -->
<g id="node1" class="node">
<title>_cffi_backend</title><style>.edge>path:hover{stroke-width:8}</style>
<polygon fill="#ce3b3b" stroke="#ffffff" points="592,-434 589,-438 568,-438 565,-434 516,-434 516,-398 592,-398 592,-434"/>
<text xml:space="preserve" text-anchor="middle" x="554" y="-412.5" font-family="Helvetica,sans-Serif" font-size="10.00" fill="#e0e0e0">_cffi_backend</text>
</g>
<!-- cffi -->
<g id="node4" class="node">
<title>cffi</title><style>.edge>path:hover{stroke-width:8}</style>
<polygon fill="#5a5a5a" stroke="#ffffff" points="772,-485 769,-489 748,-489 745,-485 718,-485 718,-449 772,-449 772,-485"/>
<text xml:space="preserve" text-anchor="middle" x="745" y="-463.5" font-family="Helvetica,sans-Serif" font-size="10.00" fill="#e0e0e0">cffi</text>
</g>
<!-- _cffi_backend&#45;&gt;cffi -->
<g id="edge1" class="edge">
<title>_cffi_backend&#45;&gt;cffi</title><style>.edge>path:hover{stroke-width:8}</style>
<path fill="none" stroke="#ffffff" d="M656,-467C672.44,-468.93 690.74,-469.22 706.37,-468.92"/>
<polygon fill="#ce3b3b" stroke="#ffffff" points="706.32,-472.43 716.21,-468.64 706.11,-465.43 706.32,-472.43"/>
<path fill="none" stroke="#ffffff" d="M584.93,-434.4C608.5,-448.32 639.69,-465.32 654,-467"/>
</g>
<!-- _pytest -->
<g id="node2" class="node">
<title>_pytest</title><style>.edge>path:hover{stroke-width:8}</style>
<polygon fill="#f94306" stroke="#ffffff" points="581,-192 578,-196 557,-196 554,-192 527,-192 527,-156 581,-156 581,-192"/>
<text xml:space="preserve" text-anchor="middle" x="554" y="-170.5" font-family="Helvetica,sans-Serif" font-size="10.00" fill="#e0e0e0">_pytest</text>
</g>
<!-- py -->
<g id="node12" class="node">
<title>py</title><style>.edge>path:hover{stroke-width:8}</style>
<polygon fill="#5a5a5a" stroke="#ffffff" points="862,-192 859,-196 838,-196 835,-192 808,-192 808,-156 862,-156 862,-192"/>
<text xml:space="preserve" text-anchor="middle" x="835" y="-170.5" font-family="Helvetica,sans-Serif" font-size="10.00" fill="#e0e0e0">py</text>
</g>
<!-- _pytest&#45;&gt;py -->
<g id="edge2" class="edge">
<title>_pytest&#45;&gt;py</title><style>.edge>path:hover{stroke-width:8}</style>
<path fill="none" stroke="#ffffff" d="M592.96,-174C646.38,-174 743.15,-174 796.38,-174"/>
<polygon fill="#f94306" stroke="#ffffff" points="593.01,-170.5 583.01,-174 593.01,-177.5 593.01,-170.5"/>
<polygon fill="#f94306" stroke="#ffffff" points="796.16,-177.5 806.16,-174 796.16,-170.5 796.16,-177.5"/>
</g>
<!-- pytest -->
<g id="node17" class="node">
<title>pytest</title><style>.edge>path:hover{stroke-width:8}</style>
<polygon fill="#5a5a5a" stroke="#ffffff" points="772,-270 769,-274 748,-274 745,-270 718,-270 718,-234 772,-234 772,-270"/>
<text xml:space="preserve" text-anchor="middle" x="745" y="-248.5" font-family="Helvetica,sans-Serif" font-size="10.00" fill="#e0e0e0">pytest</text>
</g>
<!-- _pytest&#45;&gt;pytest -->
<g id="edge3" class="edge">
<title>_pytest&#45;&gt;pytest</title><style>.edge>path:hover{stroke-width:8}</style>
<path fill="none" stroke="#ffffff" d="M591.63,-189.12C625,-202.89 674.03,-223.12 707.4,-236.89"/>
<polygon fill="#f94306" stroke="#ffffff" points="593.26,-186 582.68,-185.42 590.59,-192.47 593.26,-186"/>
<polygon fill="#f94306" stroke="#ffffff" points="705.66,-239.96 716.24,-240.54 708.33,-233.49 705.66,-239.96"/>
</g>
<!-- audioop -->
<g id="node3" class="node">
<title>audioop</title><style>.edge>path:hover{stroke-width:8}</style>
<polygon fill="#b3804c" stroke="#ffffff" points="1079.4,-483 1076.4,-487 1055.4,-487 1052.4,-483 1025.4,-483 1025.4,-447 1079.4,-447 1079.4,-483"/>
<text xml:space="preserve" text-anchor="middle" x="1052.4" y="-461.5" font-family="Helvetica,sans-Serif" font-size="10.00" fill="#e0e0e0">audioop</text>
</g>
<!-- pydub -->
<g id="node14" class="node">
<title>pydub</title><style>.edge>path:hover{stroke-width:8}</style>
<polygon fill="#5a5a5a" stroke="#ffffff" points="1212.53,-477 1209.53,-481 1188.53,-481 1185.53,-477 1158.53,-477 1158.53,-441 1212.53,-441 1212.53,-477"/>
<text xml:space="preserve" text-anchor="middle" x="1185.53" y="-455.5" font-family="Helvetica,sans-Serif" font-size="10.00" fill="#e0e0e0">pydub</text>
</g>
<!-- audioop&#45;&gt;pydub -->
<g id="edge4" class="edge">
<title>audioop&#45;&gt;pydub</title><style>.edge>path:hover{stroke-width:8}</style>
<path fill="none" stroke="#ffffff" d="M1079.62,-463.8C1098.92,-462.92 1125.43,-461.7 1146.97,-460.72"/>
<polygon fill="#b3804c" stroke="#ffffff" points="1147.01,-464.22 1156.84,-460.27 1146.69,-457.23 1147.01,-464.22"/>
</g>
<!-- scipy -->
<g id="node18" class="node">
<title>scipy</title><style>.edge>path:hover{stroke-width:8}</style>
<polygon fill="#5a5a5a" stroke="#ffffff" points="1079.4,-429 1076.4,-433 1055.4,-433 1052.4,-429 1025.4,-429 1025.4,-393 1079.4,-393 1079.4,-429"/>
<text xml:space="preserve" text-anchor="middle" x="1052.4" y="-407.5" font-family="Helvetica,sans-Serif" font-size="10.00" fill="#e0e0e0">scipy</text>
</g>
<!-- cffi&#45;&gt;scipy -->
<g id="edge5" class="edge">
<title>cffi&#45;&gt;scipy</title><style>.edge>path:hover{stroke-width:8}</style>
<path fill="none" stroke="#ffffff" d="M772.3,-462.18C826.65,-452.21 951.47,-429.32 1014.11,-417.84"/>
<polygon fill="#5a5a5a" stroke="#ffffff" points="1014.36,-421.35 1023.57,-416.1 1013.1,-414.47 1014.36,-421.35"/>
</g>
<!-- charset_normalizer -->
<g id="node5" class="node">
<title>charset_normalizer</title><style>.edge>path:hover{stroke-width:8}</style>
<polygon fill="#5a5a5a" stroke="#ffffff" points="191.75,-228 188.75,-232 167.75,-232 164.75,-228 93.25,-228 93.25,-192 191.75,-192 191.75,-228"/>
<text xml:space="preserve" text-anchor="middle" x="142.5" y="-206.5" font-family="Helvetica,sans-Serif" font-size="10.00" fill="#e0e0e0">charset_normalizer</text>
</g>
<!-- numpy -->
<g id="node9" class="node">
<title>numpy</title><style>.edge>path:hover{stroke-width:8}</style>
<polygon fill="#5a5a5a" stroke="#ffffff" points="429,-390 426,-394 405,-394 402,-390 375,-390 375,-354 429,-354 429,-390"/>
<text xml:space="preserve" text-anchor="middle" x="402" y="-368.5" font-family="Helvetica,sans-Serif" font-size="10.00" fill="#e0e0e0">numpy</text>
</g>
<!-- charset_normalizer&#45;&gt;numpy -->
<g id="edge6" class="edge">
<title>charset_normalizer&#45;&gt;numpy</title><style>.edge>path:hover{stroke-width:8}</style>
<path fill="none" stroke="#ffffff" d="M192.2,-207.83C203.89,-207.91 216.29,-208.49 227.75,-210"/>
</g>
<!-- colorama -->
<g id="node6" class="node">
<title>colorama</title><style>.edge>path:hover{stroke-width:8}</style>
<polygon fill="#5a5a5a" stroke="#ffffff" points="429.88,-336 426.88,-340 405.88,-340 402.88,-336 374.12,-336 374.12,-300 429.88,-300 429.88,-336"/>
<text xml:space="preserve" text-anchor="middle" x="402" y="-314.5" font-family="Helvetica,sans-Serif" font-size="10.00" fill="#e0e0e0">colorama</text>
</g>
<!-- colorama&#45;&gt;_pytest -->
<g id="edge7" class="edge">
<title>colorama&#45;&gt;_pytest</title><style>.edge>path:hover{stroke-width:8}</style>
<path fill="none" stroke="#ffffff" d="M430.22,-303.48C435.01,-299.92 439.56,-295.75 443,-291 477.4,-243.48 421.91,-177.52 479,-164"/>
</g>
<!-- tqdm -->
<g id="node23" class="node">
<title>tqdm</title><style>.edge>path:hover{stroke-width:8}</style>
<polygon fill="#5a5a5a" stroke="#ffffff" points="682,-304 679,-308 658,-308 655,-304 628,-304 628,-268 682,-268 682,-304"/>
<text xml:space="preserve" text-anchor="middle" x="655" y="-282.5" font-family="Helvetica,sans-Serif" font-size="10.00" fill="#e0e0e0">tqdm</text>
</g>
<!-- colorama&#45;&gt;tqdm -->
<g id="edge8" class="edge">
<title>colorama&#45;&gt;tqdm</title><style>.edge>path:hover{stroke-width:8}</style>
<path fill="none" stroke="#ffffff" d="M430.34,-314.51C475.49,-308.76 565.69,-297.26 616.67,-290.76"/>
<polygon fill="#5a5a5a" stroke="#ffffff" points="616.85,-294.26 626.33,-289.53 615.96,-287.32 616.85,-294.26"/>
</g>
<!-- exceptiongroup -->
<g id="node7" class="node">
<title>exceptiongroup</title><style>.edge>path:hover{stroke-width:8}</style>
<polygon fill="#66c705" stroke="#ffffff" points="443,-282 440,-286 419,-286 416,-282 361,-282 361,-246 443,-246 443,-282"/>
<text xml:space="preserve" text-anchor="middle" x="402" y="-260.5" font-family="Helvetica,sans-Serif" font-size="10.00" fill="#e0e0e0">exceptiongroup</text>
</g>
<!-- exceptiongroup&#45;&gt;_pytest -->
<g id="edge9" class="edge">
<title>exceptiongroup&#45;&gt;_pytest</title><style>.edge>path:hover{stroke-width:8}</style>
<path fill="none" stroke="#ffffff" d="M433.67,-245.82C437.04,-243.11 440.25,-240.16 443,-237 466.79,-209.75 443.8,-172.34 479,-164"/>
</g>
<!-- iniconfig -->
<g id="node8" class="node">
<title>iniconfig</title><style>.edge>path:hover{stroke-width:8}</style>
<polygon fill="#4cc823" stroke="#ffffff" points="429,-228 426,-232 405,-232 402,-228 375,-228 375,-192 429,-192 429,-228"/>
<text xml:space="preserve" text-anchor="middle" x="402" y="-206.5" font-family="Helvetica,sans-Serif" font-size="10.00" fill="#e0e0e0">iniconfig</text>
</g>
<!-- iniconfig&#45;&gt;_pytest -->
<g id="edge10" class="edge">
<title>iniconfig&#45;&gt;_pytest</title><style>.edge>path:hover{stroke-width:8}</style>
<path fill="none" stroke="#ffffff" d="M424.95,-191.62C439.31,-180.96 459.04,-168.73 479,-164"/>
</g>
<!-- numpy&#45;&gt;_pytest -->
<g id="edge11" class="edge">
<title>numpy&#45;&gt;_pytest</title><style>.edge>path:hover{stroke-width:8}</style>
<path fill="none" stroke="#ffffff" d="M429.29,-358.59C434.52,-354.84 439.47,-350.3 443,-345 488.41,-276.7 399.19,-182.9 479,-164"/>
</g>
<!-- pyloudnorm -->
<g id="node16" class="node">
<title>pyloudnorm</title><style>.edge>path:hover{stroke-width:8}</style>
<polygon fill="#5a5a5a" stroke="#ffffff" points="1218.65,-383 1215.65,-387 1194.65,-387 1191.65,-383 1152.4,-383 1152.4,-347 1218.65,-347 1218.65,-383"/>
<text xml:space="preserve" text-anchor="middle" x="1185.53" y="-361.5" font-family="Helvetica,sans-Serif" font-size="10.00" fill="#e0e0e0">pyloudnorm</text>
</g>
<!-- numpy&#45;&gt;pyloudnorm -->
<g id="edge12" class="edge">
<title>numpy&#45;&gt;pyloudnorm</title><style>.edge>path:hover{stroke-width:8}</style>
<path fill="none" stroke="#ffffff" d="M1116.4,-365C1124.26,-363.74 1132.69,-363.14 1140.86,-362.94"/>
<polygon fill="#5a5a5a" stroke="#ffffff" points="1140.63,-366.44 1150.62,-362.91 1140.61,-359.44 1140.63,-366.44"/>
</g>
<!-- numpy&#45;&gt;scipy -->
<g id="edge13" class="edge">
<title>numpy&#45;&gt;scipy</title><style>.edge>path:hover{stroke-width:8}</style>
<path fill="none" stroke="#ffffff" d="M480,-378C530.34,-400.78 472.18,-463.34 516,-497 666.49,-612.57 757.53,-552.44 942.7,-511"/>
<path fill="none" stroke="#ffffff" d="M944.7,-511C954.72,-507.46 997.3,-465.76 1025.54,-437.34"/>
<polygon fill="#5a5a5a" stroke="#ffffff" points="1027.83,-440 1032.38,-430.43 1022.85,-435.08 1027.83,-440"/>
</g>
<!-- src -->
<g id="node19" class="node">
<title>src</title><style>.edge>path:hover{stroke-width:8}</style>
<polygon fill="#8553b6" stroke="#ffffff" points="1345.65,-418 1342.65,-422 1321.65,-422 1318.65,-418 1291.65,-418 1291.65,-382 1345.65,-382 1345.65,-418"/>
<text xml:space="preserve" text-anchor="middle" x="1318.65" y="-396.5" font-family="Helvetica,sans-Serif" font-size="10.00" fill="#e0e0e0">src</text>
</g>
<!-- numpy&#45;&gt;src -->
<g id="edge14" class="edge">
<title>numpy&#45;&gt;src</title><style>.edge>path:hover{stroke-width:8}</style>
<path fill="none" stroke="#ffffff" d="M746,-394C909.93,-378.27 952.81,-391.16 1115.4,-365"/>
<path fill="none" stroke="#ffffff" d="M1116.4,-365C1151.97,-356.66 1149.11,-310.02 1184.53,-319"/>
</g>
<!-- tests_conftest -->
<g id="node20" class="node">
<title>tests_conftest</title><style>.edge>path:hover{stroke-width:8}</style>
<ellipse fill="#993db8" stroke="#ffffff" cx="943.7" cy="-272" rx="45.7" ry="18"/>
<text xml:space="preserve" text-anchor="middle" x="943.7" y="-268.5" font-family="Helvetica,sans-Serif" font-size="10.00" fill="#e0e0e0">tests.conftest</text>
</g>
<!-- numpy&#45;&gt;tests_conftest -->
<g id="edge15" class="edge">
<title>numpy&#45;&gt;tests_conftest</title><style>.edge>path:hover{stroke-width:8}</style>
<path fill="none" stroke="#ffffff" d="M480,-378C493.55,-383.69 729.51,-396.45 744,-394"/>
<path fill="none" stroke="#ffffff" d="M429.42,-369.76C444.57,-369.51 463.57,-371.01 479,-378"/>
<path fill="none" stroke="#ffffff" d="M746,-394C813.52,-375.48 880.25,-325.66 915.99,-295.72"/>
<polygon fill="#5a5a5a" stroke="#ffffff" points="917.89,-298.7 923.23,-289.55 913.35,-293.37 917.89,-298.7"/>
</g>
<!-- tests_test_main -->
<g id="node21" class="node">
<title>tests_test_main</title><style>.edge>path:hover{stroke-width:8}</style>
<ellipse fill="#743a88" stroke="#ffffff" cx="1460.2" cy="-400" rx="41.54" ry="22.63"/>
<text xml:space="preserve" text-anchor="middle" x="1460.2" y="-402.5" font-family="Helvetica,sans-Serif" font-size="10.00" fill="#e0e0e0">tests.</text>
<text xml:space="preserve" text-anchor="middle" x="1460.2" y="-390.5" font-family="Helvetica,sans-Serif" font-size="10.00" fill="#e0e0e0">test_main</text>
</g>
<!-- numpy&#45;&gt;tests_test_main -->
<g id="edge16" class="edge">
<title>numpy&#45;&gt;tests_test_main</title><style>.edge>path:hover{stroke-width:8}</style>
<path fill="none" stroke="#ffffff" d="M944.7,-511C1059.98,-470.26 1099.82,-514.76 1218.65,-486 1264.78,-474.84 1273.65,-463.77 1317.65,-446"/>
</g>
<!-- packaging -->
<g id="node10" class="node">
<title>packaging</title><style>.edge>path:hover{stroke-width:8}</style>
<polygon fill="#3bce60" stroke="#ffffff" points="325,-182 322,-186 301,-186 298,-182 264.75,-182 264.75,-146 325,-146 325,-182"/>
<text xml:space="preserve" text-anchor="middle" x="294.88" y="-160.5" font-family="Helvetica,sans-Serif" font-size="10.00" fill="#e0e0e0">packaging</text>
</g>
<!-- packaging&#45;&gt;_pytest -->
<g id="edge17" class="edge">
<title>packaging&#45;&gt;_pytest</title><style>.edge>path:hover{stroke-width:8}</style>
<path fill="none" stroke="#ffffff" d="M325.22,-168.11C361.79,-172.3 425.94,-176.57 479,-164"/>
</g>
<!-- pluggy -->
<g id="node11" class="node">
<title>pluggy</title><style>.edge>path:hover{stroke-width:8}</style>
<polygon fill="#5a5a5a" stroke="#ffffff" points="429,-136 426,-140 405,-140 402,-136 375,-136 375,-100 429,-100 429,-136"/>
<text xml:space="preserve" text-anchor="middle" x="402" y="-114.5" font-family="Helvetica,sans-Serif" font-size="10.00" fill="#e0e0e0">pluggy</text>
</g>
<!-- pluggy&#45;&gt;_pytest -->
<g id="edge18" class="edge">
<title>pluggy&#45;&gt;_pytest</title><style>.edge>path:hover{stroke-width:8}</style>
<path fill="none" stroke="#ffffff" d="M425.51,-136.5C443.59,-150.41 467.74,-166.67 479,-164"/>
</g>
<!-- pycparser -->
<g id="node13" class="node">
<title>pycparser</title><style>.edge>path:hover{stroke-width:8}</style>
<polygon fill="#5a5a5a" stroke="#ffffff" points="583.38,-488 580.38,-492 559.38,-492 556.38,-488 524.63,-488 524.63,-452 583.38,-452 583.38,-488"/>
<text xml:space="preserve" text-anchor="middle" x="554" y="-466.5" font-family="Helvetica,sans-Serif" font-size="10.00" fill="#e0e0e0">pycparser</text>
</g>
<!-- pycparser&#45;&gt;cffi -->
<g id="edge20" class="edge">
<title>pycparser&#45;&gt;cffi</title><style>.edge>path:hover{stroke-width:8}</style>
<path fill="none" stroke="#ffffff" d="M583.69,-466.92C603.5,-465.33 630.43,-464.24 654,-467"/>
</g>
<!-- pydub&#45;&gt;src -->
<g id="edge21" class="edge">
<title>pydub&#45;&gt;src</title><style>.edge>path:hover{stroke-width:8}</style>
<path fill="none" stroke="#ffffff" d="M1255.65,-436C1265.16,-433.47 1274.71,-429.06 1283.37,-424.19"/>
<polygon fill="#5a5a5a" stroke="#ffffff" points="1285.02,-427.28 1291.77,-419.11 1281.4,-421.29 1285.02,-427.28"/>
<path fill="none" stroke="#ffffff" d="M1212.81,-449.23C1225.36,-444.8 1240.66,-439.73 1254.65,-436"/>
</g>
<!-- pydub&#45;&gt;tests_test_main -->
<g id="edge22" class="edge">
<title>pydub&#45;&gt;tests_test_main</title><style>.edge>path:hover{stroke-width:8}</style>
<path fill="none" stroke="#ffffff" d="M1319.65,-446C1332.92,-440.64 1334.15,-435.52 1345.65,-427 1361.73,-415.1 1361.66,-399.74 1381.65,-400"/>
<path fill="none" stroke="#ffffff" d="M1255.65,-436C1282.62,-428.81 1291.77,-456.45 1317.65,-446"/>
</g>
<!-- pygments -->
<g id="node15" class="node">
<title>pygments</title><style>.edge>path:hover{stroke-width:8}</style>
<polygon fill="#5a5a5a" stroke="#ffffff" points="324.25,-90 321.25,-94 300.25,-94 297.25,-90 265.5,-90 265.5,-54 324.25,-54 324.25,-90"/>
<text xml:space="preserve" text-anchor="middle" x="294.88" y="-68.5" font-family="Helvetica,sans-Serif" font-size="10.00" fill="#e0e0e0">pygments</text>
</g>
<!-- pygments&#45;&gt;_pytest -->
<g id="edge23" class="edge">
<title>pygments&#45;&gt;_pytest</title><style>.edge>path:hover{stroke-width:8}</style>
<path fill="none" stroke="#ffffff" d="M324.57,-65.54C346.59,-62.06 377.15,-60.54 401,-72"/>
</g>
<!-- pyloudnorm&#45;&gt;src -->
<g id="edge24" class="edge">
<title>pyloudnorm&#45;&gt;src</title><style>.edge>path:hover{stroke-width:8}</style>
<path fill="none" stroke="#ffffff" d="M1218.81,-376.97C1230.05,-380.85 1242.81,-384.94 1254.65,-388"/>
</g>
<!-- pytest&#45;&gt;numpy -->
<g id="edge26" class="edge">
<title>pytest&#45;&gt;numpy</title><style>.edge>path:hover{stroke-width:8}</style>
<path fill="none" stroke="#ffffff" d="M730.25,-270.33C718.86,-284.2 701.42,-302.57 682,-313 640.44,-335.32 506.16,-357.1 440.23,-366.78"/>
<polygon fill="#5a5a5a" stroke="#ffffff" points="440.02,-363.27 430.62,-368.17 441.02,-370.2 440.02,-363.27"/>
</g>
<!-- pytest&#45;&gt;scipy -->
<g id="edge27" class="edge">
<title>pytest&#45;&gt;scipy</title><style>.edge>path:hover{stroke-width:8}</style>
<path fill="none" stroke="#ffffff" d="M772.3,-265.69C826.88,-294.11 952.51,-359.51 1014.89,-391.99"/>
<polygon fill="#5a5a5a" stroke="#ffffff" points="1013.23,-395.07 1023.71,-396.58 1016.46,-388.86 1013.23,-395.07"/>
</g>
<!-- pytest&#45;&gt;tests_conftest -->
<g id="edge28" class="edge">
<title>pytest&#45;&gt;tests_conftest</title><style>.edge>path:hover{stroke-width:8}</style>
<path fill="none" stroke="#ffffff" d="M836,-226C862.9,-225.02 890.75,-237.56 911.25,-249.8"/>
<polygon fill="#5a5a5a" stroke="#ffffff" points="909.36,-252.74 919.69,-255.1 913.09,-246.81 909.36,-252.74"/>
</g>
<!-- pytest&#45;&gt;tests_test_main -->
<g id="edge29" class="edge">
<title>pytest&#45;&gt;tests_test_main</title><style>.edge>path:hover{stroke-width:8}</style>
<path fill="none" stroke="#ffffff" d="M1053.4,-272C1127.61,-282.13 1148.16,-279.72 1218.65,-305 1278.92,-326.61 1291.66,-338.58 1345.65,-373 1362.52,-383.75 1361.66,-399.74 1381.65,-400"/>
<path fill="none" stroke="#ffffff" d="M1382.65,-400C1390.51,-399.96 1398.82,-399.94 1406.96,-399.93"/>
<polygon fill="#5a5a5a" stroke="#ffffff" points="1406.77,-403.43 1416.77,-399.93 1406.77,-396.43 1406.77,-403.43"/>
<path fill="none" stroke="#ffffff" d="M836,-226C904.65,-223.5 923.14,-226.88 989.4,-245 1018.39,-252.93 1021.76,-267.06 1051.4,-272"/>
<path fill="none" stroke="#ffffff" d="M772.37,-240.13C789.55,-233.43 812.66,-226.32 834,-226"/>
</g>
<!-- scipy&#45;&gt;pyloudnorm -->
<g id="edge30" class="edge">
<title>scipy&#45;&gt;pyloudnorm</title><style>.edge>path:hover{stroke-width:8}</style>
<path fill="none" stroke="#ffffff" d="M1079.8,-412.84C1090.86,-413.14 1103.82,-412.86 1115.4,-411"/>
<path fill="none" stroke="#ffffff" d="M1116.4,-411C1131.75,-408.53 1146.36,-399.84 1158.09,-390.67"/>
<polygon fill="#5a5a5a" stroke="#ffffff" points="1160.28,-393.4 1165.68,-384.29 1155.78,-388.04 1160.28,-393.4"/>
</g>
<!-- scipy&#45;&gt;src -->
<g id="edge31" class="edge">
<title>scipy&#45;&gt;src</title><style>.edge>path:hover{stroke-width:8}</style>
<path fill="none" stroke="#ffffff" d="M1116.4,-411C1124.09,-409.76 1247.11,-386.05 1254.65,-388"/>
</g>
<!-- src&#45;&gt;tests_test_main -->
<g id="edge32" class="edge">
<title>src&#45;&gt;tests_test_main</title><style>.edge>path:hover{stroke-width:8}</style>
<path fill="none" stroke="#ffffff" d="M1345.9,-399.85C1356.94,-399.82 1369.92,-399.85 1381.65,-400"/>
</g>
<!-- tests_conftest&#45;&gt;tests_test_main -->
<g id="edge33" class="edge">
<title>tests_conftest&#45;&gt;tests_test_main</title><style>.edge>path:hover{stroke-width:8}</style>
<path fill="none" stroke="#ffffff" d="M989.27,-269.32C1008.47,-268.85 1031.12,-269.23 1051.4,-272"/>
</g>
<!-- tomli -->
<g id="node22" class="node">
<title>tomli</title><style>.edge>path:hover{stroke-width:8}</style>
<polygon fill="#b653b6" stroke="#ffffff" points="321.88,-36 318.88,-40 297.88,-40 294.88,-36 267.88,-36 267.88,0 321.88,0 321.88,-36"/>
<text xml:space="preserve" text-anchor="middle" x="294.88" y="-14.5" font-family="Helvetica,sans-Serif" font-size="10.00" fill="#e0e0e0">tomli</text>
</g>
<!-- tomli&#45;&gt;_pytest -->
<g id="edge34" class="edge">
<title>tomli&#45;&gt;_pytest</title><style>.edge>path:hover{stroke-width:8}</style>
<path fill="none" stroke="#ffffff" d="M322.03,-31.93C343.19,-43.07 373.81,-58.94 401,-72"/>
<path fill="none" stroke="#ffffff" d="M480,-164C491.47,-161.23 504.15,-161.75 515.69,-163.56"/>
<polygon fill="#b653b6" stroke="#ffffff" points="514.78,-166.95 525.26,-165.42 516.12,-160.07 514.78,-166.95"/>
<path fill="none" stroke="#ffffff" d="M403,-72C420.74,-80.52 428.98,-77.19 443,-91 468.77,-116.39 443.84,-172.5 479,-164"/>
</g>
<!-- tqdm&#45;&gt;src -->
<g id="edge35" class="edge">
<title>tqdm&#45;&gt;src</title><style>.edge>path:hover{stroke-width:8}</style>
<path fill="none" stroke="#ffffff" d="M682.27,-293.75C716.77,-303.22 779.37,-318 834,-318 834,-318 834,-318 1053.4,-318 1111.68,-318 1127.84,-305.48 1184.53,-319"/>
<path fill="none" stroke="#ffffff" d="M1255.65,-388C1263.46,-390.24 1271.94,-392.19 1280.05,-393.83"/>
<polygon fill="#5a5a5a" stroke="#ffffff" points="1279.2,-397.23 1289.68,-395.65 1280.5,-390.35 1279.2,-397.23"/>
<path fill="none" stroke="#ffffff" d="M1186.53,-319C1202.61,-323.08 1206.41,-326.81 1218.65,-338 1238.87,-356.47 1228.33,-380.44 1254.65,-388"/>
</g>
<!-- typing_extensions -->
<g id="node24" class="node">
<title>typing_extensions</title><style>.edge>path:hover{stroke-width:8}</style>
<polygon fill="#f91085" stroke="#ffffff" points="189.88,-136 186.88,-140 165.88,-140 162.88,-136 95.12,-136 95.12,-100 189.88,-100 189.88,-136"/>
<text xml:space="preserve" text-anchor="middle" x="142.5" y="-114.5" font-family="Helvetica,sans-Serif" font-size="10.00" fill="#e0e0e0">typing_extensions</text>
</g>
<!-- typing_extensions&#45;&gt;_pytest -->
<g id="edge36" class="edge">
<title>typing_extensions&#45;&gt;_pytest</title><style>.edge>path:hover{stroke-width:8}</style>
<path fill="none" stroke="#ffffff" d="M228.75,-164C248.15,-168.87 247.64,-147.36 264.75,-137 279.1,-128.31 385.88,-64.74 401,-72"/>
<path fill="none" stroke="#ffffff" d="M169.03,-136.28C185.05,-146.62 206.61,-158.54 227.75,-164"/>
</g>
<!-- typing_extensions&#45;&gt;numpy -->
<g id="edge37" class="edge">
<title>typing_extensions&#45;&gt;numpy</title><style>.edge>path:hover{stroke-width:8}</style>
<path fill="none" stroke="#ffffff" d="M295.88,-210C348.52,-250.82 317.41,-294.62 361,-345 362.6,-346.85 364.36,-348.64 366.22,-350.34"/>
<polygon fill="#f91085" stroke="#ffffff" points="363.67,-352.78 373.65,-356.33 368.06,-347.33 363.67,-352.78"/>
<path fill="none" stroke="#ffffff" d="M228.75,-164C248.15,-168.87 248.37,-179.53 264.75,-191 277.41,-199.86 281.66,-200.53 293.88,-210"/>
</g>
<!-- typing_extensions&#45;&gt;packaging -->
<g id="edge38" class="edge">
<title>typing_extensions&#45;&gt;packaging</title><style>.edge>path:hover{stroke-width:8}</style>
<path fill="none" stroke="#ffffff" d="M228.75,-164C236.5,-165.95 244.94,-166.82 253.09,-167.06"/>
<polygon fill="#f91085" stroke="#ffffff" points="252.82,-170.56 262.81,-167.04 252.8,-163.56 252.82,-170.56"/>
</g>
<!-- win32pdh -->
<g id="node25" class="node">
<title>win32pdh</title><style>.edge>path:hover{stroke-width:8}</style>
<polygon fill="#b6536c" stroke="#ffffff" points="57.25,-182 54.25,-186 33.25,-186 30.25,-182 0,-182 0,-146 57.25,-146 57.25,-182"/>
<text xml:space="preserve" text-anchor="middle" x="28.62" y="-160.5" font-family="Helvetica,sans-Serif" font-size="10.00" fill="#e0e0e0">win32pdh</text>
</g>
<!-- win32pdh&#45;&gt;numpy -->
<g id="edge39" class="edge">
<title>win32pdh&#45;&gt;numpy</title><style>.edge>path:hover{stroke-width:8}</style>
<path fill="none" stroke="#ffffff" d="M228.75,-210C257.45,-213.78 271,-192.27 293.88,-210"/>
<path fill="none" stroke="#ffffff" d="M57.66,-162.94C90.87,-162.64 147.27,-165.23 191.75,-183 210.32,-190.42 207.92,-207.39 227.75,-210"/>
</g>
</g>
</svg>

