<?xml version="1.0" encoding="UTF-8" standalone="no"?>
<!DOCTYPE svg PUBLIC "-//W3C//DTD SVG 1.1//EN"
 "http://www.w3.org/Graphics/SVG/1.1/DTD/svg11.dtd">
<!-- Generated by graphviz version 15.1.0 (20260618.0150)
 -->
<!-- Title: G Pages: 1 -->
<svg style="background-color:#141414" width="426pt" height="298pt"
 viewBox="0.00 0.00 426.00 298.00" xmlns="http://www.w3.org/2000/svg" xmlns:xlink="http://www.w3.org/1999/xlink">
<g id="graph0" class="graph" transform="scale(1 1) rotate(0) translate(4 294)">
<title>G</title><style>.edge>path:hover{stroke-width:8}</style>
<polygon fill="#141414" stroke="none" points="-4,4 -4,-294 421.67,-294 421.67,4 -4,4"/>
<!-- numpy -->
<g id="node1" class="node">
<title>numpy</title><style>.edge>path:hover{stroke-width:8}</style>
<polygon fill="#5a5a5a" stroke="#ffffff" points="163.75,-244 109.75,-244 109.75,-208 163.75,-208 163.75,-244"/>
<text xml:space="preserve" text-anchor="middle" x="136.75" y="-222.5" font-family="Helvetica,sans-Serif" font-size="10.00" fill="#e0e0e0">numpy</text>
</g>
<!-- scipy -->
<g id="node5" class="node">
<title>scipy</title><style>.edge>path:hover{stroke-width:8}</style>
<ellipse fill="#31c4c4" stroke="#ffffff" cx="240.04" cy="-272" rx="27" ry="18"/>
<text xml:space="preserve" text-anchor="middle" x="240.04" y="-268.5" font-family="Helvetica,sans-Serif" font-size="10.00" fill="#e0e0e0">scipy</text>
</g>
<!-- numpy&#45;&gt;scipy -->
<g id="edge1" class="edge">
<title>numpy&#45;&gt;scipy</title><style>.edge>path:hover{stroke-width:8}</style>
<path fill="none" stroke="#ffffff" d="M164.1,-237.97C177.27,-243.95 193.32,-251.24 207.18,-257.53"/>
<polygon fill="#5a5a5a" stroke="#ffffff" points="205.33,-260.54 215.89,-261.49 208.23,-254.16 205.33,-260.54"/>
</g>
<!-- src_main -->
<g id="node7" class="node">
<title>src_main</title><style>.edge>path:hover{stroke-width:8}</style>
<ellipse fill="#3a3a88" stroke="#ffffff" cx="385.5" cy="-180" rx="32.17" ry="18"/>
<text xml:space="preserve" text-anchor="middle" x="385.5" y="-176.5" font-family="Helvetica,sans-Serif" font-size="10.00" fill="#e0e0e0">src.main</text>
</g>
<!-- numpy&#45;&gt;src_main -->
<g id="edge2" class="edge">
<title>numpy&#45;&gt;src_main</title><style>.edge>path:hover{stroke-width:8}</style>
<path fill="none" stroke="#ffffff" d="M164.17,-228.3C184.72,-229.53 213.87,-230.07 239.04,-226"/>
</g>
<!-- numpy_typing -->
<g id="node2" class="node">
<title>numpy_typing</title><style>.edge>path:hover{stroke-width:8}</style>
<polygon fill="#5a5a5a" stroke="#ffffff" points="73.75,-221 0,-221 0,-185 73.75,-185 73.75,-221"/>
<text xml:space="preserve" text-anchor="middle" x="36.88" y="-199.5" font-family="Helvetica,sans-Serif" font-size="10.00" fill="#e0e0e0">numpy.typing</text>
</g>
<!-- numpy_typing&#45;&gt;numpy -->
<g id="edge3" class="edge">
<title>numpy_typing&#45;&gt;numpy</title><style>.edge>path:hover{stroke-width:8}</style>
<path fill="none" stroke="#ffffff" d="M74.04,-211.5C82.04,-213.38 90.52,-215.37 98.55,-217.26"/>
<polygon fill="#5a5a5a" stroke="#ffffff" points="97.51,-220.61 108.04,-219.49 99.11,-213.79 97.51,-220.61"/>
</g>
<!-- numpy_typing&#45;&gt;src_main -->
<g id="edge4" class="edge">
<title>numpy_typing&#45;&gt;src_main</title><style>.edge>path:hover{stroke-width:8}</style>
<path fill="none" stroke="#ffffff" d="M74.05,-200.59C85.47,-199.94 98.13,-199.32 109.75,-199 133.74,-198.33 140.1,-194.89 163.75,-199 198.77,-205.09 203.95,-231.67 239.04,-226"/>
<path fill="none" stroke="#ffffff" d="M241.04,-226C260.04,-222.1 263.76,-217.09 280.33,-207 297.41,-196.6 296.7,-176.19 316.33,-180"/>
</g>
<!-- pydub -->
<g id="node3" class="node">
<title>pydub</title><style>.edge>path:hover{stroke-width:8}</style>
<ellipse fill="#b6b653" stroke="#ffffff" cx="240.04" cy="-180" rx="27" ry="18"/>
<text xml:space="preserve" text-anchor="middle" x="240.04" y="-176.5" font-family="Helvetica,sans-Serif" font-size="10.00" fill="#e0e0e0">pydub</text>
</g>
<!-- pydub&#45;&gt;src_main -->
<g id="edge5" class="edge">
<title>pydub&#45;&gt;src_main</title><style>.edge>path:hover{stroke-width:8}</style>
<path fill="none" stroke="#ffffff" d="M267.06,-177.57C281.67,-176.81 300.16,-176.86 316.33,-180"/>
</g>
<!-- pyloudnorm -->
<g id="node4" class="node">
<title>pyloudnorm</title><style>.edge>path:hover{stroke-width:8}</style>
<ellipse fill="#40c040" stroke="#ffffff" cx="240.04" cy="-126" rx="39.84" ry="18"/>
<text xml:space="preserve" text-anchor="middle" x="240.04" y="-122.5" font-family="Helvetica,sans-Serif" font-size="10.00" fill="#e0e0e0">pyloudnorm</text>
</g>
<!-- pyloudnorm&#45;&gt;src_main -->
<g id="edge6" class="edge">
<title>pyloudnorm&#45;&gt;src_main</title><style>.edge>path:hover{stroke-width:8}</style>
<path fill="none" stroke="#ffffff" d="M263.18,-140.98C268.8,-144.85 274.82,-149.04 280.33,-153 296.57,-164.67 296.7,-176.19 316.33,-180"/>
</g>
<!-- scipy&#45;&gt;src_main -->
<g id="edge7" class="edge">
<title>scipy&#45;&gt;src_main</title><style>.edge>path:hover{stroke-width:8}</style>
<path fill="none" stroke="#ffffff" d="M259.41,-259.18C266.44,-253.75 274.22,-247.05 280.33,-240 300.69,-216.49 285.8,-174.07 316.33,-180"/>
</g>
<!-- scipy_signal -->
<g id="node6" class="node">
<title>scipy_signal</title><style>.edge>path:hover{stroke-width:8}</style>
<ellipse fill="#3db8b8" stroke="#ffffff" cx="240.04" cy="-72" rx="40.29" ry="18"/>
<text xml:space="preserve" text-anchor="middle" x="240.04" y="-68.5" font-family="Helvetica,sans-Serif" font-size="10.00" fill="#e0e0e0">scipy.signal</text>
</g>
<!-- scipy_signal&#45;&gt;src_main -->
<g id="edge8" class="edge">
<title>scipy_signal&#45;&gt;src_main</title><style>.edge>path:hover{stroke-width:8}</style>
<path fill="none" stroke="#ffffff" d="M266.03,-86.1C271.21,-89.82 276.31,-94.16 280.33,-99 305.51,-129.3 277.66,-172.49 316.33,-180"/>
</g>
<!-- tqdm -->
<g id="node8" class="node">
<title>tqdm</title><style>.edge>path:hover{stroke-width:8}</style>
<ellipse fill="#b653b6" stroke="#ffffff" cx="240.04" cy="-18" rx="27" ry="18"/>
<text xml:space="preserve" text-anchor="middle" x="240.04" y="-14.5" font-family="Helvetica,sans-Serif" font-size="10.00" fill="#e0e0e0">tqdm</text>
</g>
<!-- tqdm&#45;&gt;src_main -->
<g id="edge9" class="edge">
<title>tqdm&#45;&gt;src_main</title><style>.edge>path:hover{stroke-width:8}</style>
<path fill="none" stroke="#ffffff" d="M317.33,-180C325.19,-181.53 333.66,-182.23 341.86,-182.45"/>
<polygon fill="#b653b6" stroke="#ffffff" points="341.64,-185.95 351.65,-182.47 341.65,-178.95 341.64,-185.95"/>
<path fill="none" stroke="#ffffff" d="M262.12,-28.59C268.8,-32.86 275.65,-38.37 280.33,-45 316.14,-95.73 255.37,-168.16 316.33,-180"/>
</g>
</g>
</svg>

