<?xml version="1.0" encoding="UTF-8" standalone="no"?>
<!DOCTYPE svg PUBLIC "-//W3C//DTD SVG 1.1//EN"
 "http://www.w3.org/Graphics/SVG/1.1/DTD/svg11.dtd">
<!-- Generated by graphviz version 15.1.0 (20260618.0150)
 -->
<!-- Title: G Pages: 1 -->
<svg style="background-color:#141414" width="1510pt" height="509pt"
 viewBox="0.00 0.00 1510.00 509.00" xmlns="http://www.w3.org/2000/svg" xmlns:xlink="http://www.w3.org/1999/xlink">
<g id="graph0" class="graph" transform="scale(1 1) rotate(0) translate(4 505.02)">
<title>G</title><style>.edge>path:hover{stroke-width:8}</style>
<polygon fill="#141414" stroke="none" points="-4,4 -4,-505.02 1505.74,-505.02 1505.74,4 -4,4"/>
<!-- _cffi_backend -->
<g id="node1" class="node">
<title>_cffi_backend</title><style>.edge>path:hover{stroke-width:8}</style>
<polygon fill="#ce3b3b" stroke="#ffffff" points="592,-450 589,-454 568,-454 565,-450 516,-450 516,-414 592,-414 592,-450"/>
<text xml:space="preserve" text-anchor="middle" x="554" y="-428.5" font-family="Helvetica,sans-Serif" font-size="10.00" fill="#e0e0e0">_cffi_backend</text>
</g>
<!-- cffi -->
<g id="node4" class="node">
<title>cffi</title><style>.edge>path:hover{stroke-width:8}</style>
<polygon fill="#5a5a5a" stroke="#ffffff" points="772,-396 769,-400 748,-400 745,-396 718,-396 718,-360 772,-360 772,-396"/>
<text xml:space="preserve" text-anchor="middle" x="745" y="-374.5" font-family="Helvetica,sans-Serif" font-size="10.00" fill="#e0e0e0">cffi</text>
</g>
<!-- _cffi_backend&#45;&gt;cffi -->
<g id="edge1" class="edge">
<title>_cffi_backend&#45;&gt;cffi</title><style>.edge>path:hover{stroke-width:8}</style>
<path fill="none" stroke="#ffffff" d="M592.16,-419.58C610.54,-414.03 633.2,-408.05 654,-405"/>
</g>
<!-- _pytest -->
<g id="node2" class="node">
<title>_pytest</title><style>.edge>path:hover{stroke-width:8}</style>
<polygon fill="#f94306" stroke="#ffffff" points="581,-190 578,-194 557,-194 554,-190 527,-190 527,-154 581,-154 581,-190"/>
<text xml:space="preserve" text-anchor="middle" x="554" y="-168.5" font-family="Helvetica,sans-Serif" font-size="10.00" fill="#e0e0e0">_pytest</text>
</g>
<!-- py -->
<g id="node12" class="node">
<title>py</title><style>.edge>path:hover{stroke-width:8}</style>
<polygon fill="#5a5a5a" stroke="#ffffff" points="862,-190 859,-194 838,-194 835,-190 808,-190 808,-154 862,-154 862,-190"/>
<text xml:space="preserve" text-anchor="middle" x="835" y="-168.5" font-family="Helvetica,sans-Serif" font-size="10.00" fill="#e0e0e0">py</text>
</g>
<!-- _pytest&#45;&gt;py -->
<g id="edge2" class="edge">
<title>_pytest&#45;&gt;py</title><style>.edge>path:hover{stroke-width:8}</style>
<path fill="none" stroke="#ffffff" d="M592.96,-172C646.38,-172 743.15,-172 796.38,-172"/>
<polygon fill="#f94306" stroke="#ffffff" points="593.01,-168.5 583.01,-172 593.01,-175.5 593.01,-168.5"/>
<polygon fill="#f94306" stroke="#ffffff" points="796.16,-175.5 806.16,-172 796.16,-168.5 796.16,-175.5"/>
</g>
<!-- pytest -->
<g id="node17" class="node">
<title>pytest</title><style>.edge>path:hover{stroke-width:8}</style>
<polygon fill="#5a5a5a" stroke="#ffffff" points="772,-304 769,-308 748,-308 745,-304 718,-304 718,-268 772,-268 772,-304"/>
<text xml:space="preserve" text-anchor="middle" x="745" y="-282.5" font-family="Helvetica,sans-Serif" font-size="10.00" fill="#e0e0e0">pytest</text>
</g>
<!-- _pytest&#45;&gt;pytest -->
<g id="edge3" class="edge">
<title>_pytest&#45;&gt;pytest</title><style>.edge>path:hover{stroke-width:8}</style>
<path fill="none" stroke="#ffffff" d="M590.68,-193.52C624.33,-213.82 674.48,-244.07 708.18,-264.39"/>
<polygon fill="#f94306" stroke="#ffffff" points="592.95,-190.8 582.58,-188.63 589.33,-196.79 592.95,-190.8"/>
<polygon fill="#f94306" stroke="#ffffff" points="705.97,-267.15 716.34,-269.32 709.59,-261.16 705.97,-267.15"/>
</g>
<!-- audioop -->
<g id="node3" class="node">
<title>audioop</title><style>.edge>path:hover{stroke-width:8}</style>
<polygon fill="#b3804c" stroke="#ffffff" points="1079.4,-450 1076.4,-454 1055.4,-454 1052.4,-450 1025.4,-450 1025.4,-414 1079.4,-414 1079.4,-450"/>
<text xml:space="preserve" text-anchor="middle" x="1052.4" y="-428.5" font-family="Helvetica,sans-Serif" font-size="10.00" fill="#e0e0e0">audioop</text>
</g>
<!-- pydub -->
<g id="node14" class="node">
<title>pydub</title><style>.edge>path:hover{stroke-width:8}</style>
<polygon fill="#5a5a5a" stroke="#ffffff" points="1212.53,-450 1209.53,-454 1188.53,-454 1185.53,-450 1158.53,-450 1158.53,-414 1212.53,-414 1212.53,-450"/>
<text xml:space="preserve" text-anchor="middle" x="1185.53" y="-428.5" font-family="Helvetica,sans-Serif" font-size="10.00" fill="#e0e0e0">pydub</text>
</g>
<!-- audioop&#45;&gt;pydub -->
<g id="edge4" class="edge">
<title>audioop&#45;&gt;pydub</title><style>.edge>path:hover{stroke-width:8}</style>
<path fill="none" stroke="#ffffff" d="M1079.62,-432C1098.92,-432 1125.43,-432 1146.97,-432"/>
<polygon fill="#b3804c" stroke="#ffffff" points="1146.84,-435.5 1156.84,-432 1146.84,-428.5 1146.84,-435.5"/>
</g>
<!-- scipy -->
<g id="node18" class="node">
<title>scipy</title><style>.edge>path:hover{stroke-width:8}</style>
<polygon fill="#5a5a5a" stroke="#ffffff" points="1079.4,-316 1076.4,-320 1055.4,-320 1052.4,-316 1025.4,-316 1025.4,-280 1079.4,-280 1079.4,-316"/>
<text xml:space="preserve" text-anchor="middle" x="1052.4" y="-294.5" font-family="Helvetica,sans-Serif" font-size="10.00" fill="#e0e0e0">scipy</text>
</g>
<!-- cffi&#45;&gt;scipy -->
<g id="edge5" class="edge">
<title>cffi&#45;&gt;scipy</title><style>.edge>path:hover{stroke-width:8}</style>
<path fill="none" stroke="#ffffff" d="M768.27,-359.5C785.15,-347.26 809.55,-333.25 834,-332"/>
</g>
<!-- charset_normalizer -->
<g id="node5" class="node">
<title>charset_normalizer</title><style>.edge>path:hover{stroke-width:8}</style>
<polygon fill="#5a5a5a" stroke="#ffffff" points="191.75,-328 188.75,-332 167.75,-332 164.75,-328 93.25,-328 93.25,-292 191.75,-292 191.75,-328"/>
<text xml:space="preserve" text-anchor="middle" x="142.5" y="-306.5" font-family="Helvetica,sans-Serif" font-size="10.00" fill="#e0e0e0">charset_normalizer</text>
</g>
<!-- numpy -->
<g id="node9" class="node">
<title>numpy</title><style>.edge>path:hover{stroke-width:8}</style>
<polygon fill="#5a5a5a" stroke="#ffffff" points="429,-328 426,-332 405,-332 402,-328 375,-328 375,-292 429,-292 429,-328"/>
<text xml:space="preserve" text-anchor="middle" x="402" y="-306.5" font-family="Helvetica,sans-Serif" font-size="10.00" fill="#e0e0e0">numpy</text>
</g>
<!-- charset_normalizer&#45;&gt;numpy -->
<g id="edge6" class="edge">
<title>charset_normalizer&#45;&gt;numpy</title><style>.edge>path:hover{stroke-width:8}</style>
<path fill="none" stroke="#ffffff" d="M192.2,-307.83C203.89,-307.91 216.29,-308.49 227.75,-310"/>
</g>
<!-- colorama -->
<g id="node6" class="node">
<title>colorama</title><style>.edge>path:hover{stroke-width:8}</style>
<polygon fill="#5a5a5a" stroke="#ffffff" points="429.88,-36 426.88,-40 405.88,-40 402.88,-36 374.12,-36 374.12,0 429.88,0 429.88,-36"/>
<text xml:space="preserve" text-anchor="middle" x="402" y="-14.5" font-family="Helvetica,sans-Serif" font-size="10.00" fill="#e0e0e0">colorama</text>
</g>
<!-- colorama&#45;&gt;_pytest -->
<g id="edge7" class="edge">
<title>colorama&#45;&gt;_pytest</title><style>.edge>path:hover{stroke-width:8}</style>
<path fill="none" stroke="#ffffff" d="M480,-126C491.78,-134.48 505.1,-143.13 517.1,-150.6"/>
<polygon fill="#5a5a5a" stroke="#ffffff" points="515.17,-153.53 525.52,-155.78 518.84,-147.56 515.17,-153.53"/>
</g>
<!-- tqdm -->
<g id="node23" class="node">
<title>tqdm</title><style>.edge>path:hover{stroke-width:8}</style>
<polygon fill="#5a5a5a" stroke="#ffffff" points="682,-144 679,-148 658,-148 655,-144 628,-144 628,-108 682,-108 682,-144"/>
<text xml:space="preserve" text-anchor="middle" x="655" y="-122.5" font-family="Helvetica,sans-Serif" font-size="10.00" fill="#e0e0e0">tqdm</text>
</g>
<!-- colorama&#45;&gt;tqdm -->
<g id="edge8" class="edge">
<title>colorama&#45;&gt;tqdm</title><style>.edge>path:hover{stroke-width:8}</style>
<path fill="none" stroke="#ffffff" d="M430.11,-33.23C434.8,-36.68 439.34,-40.63 443,-45 468.31,-75.19 447.03,-102.98 479,-126"/>
<path fill="none" stroke="#ffffff" d="M480,-126C500.99,-141.11 571.72,-136.01 616.28,-130.97"/>
<polygon fill="#5a5a5a" stroke="#ffffff" points="616.52,-134.47 626.04,-129.82 615.7,-127.52 616.52,-134.47"/>
</g>
<!-- exceptiongroup -->
<g id="node7" class="node">
<title>exceptiongroup</title><style>.edge>path:hover{stroke-width:8}</style>
<polygon fill="#66c705" stroke="#ffffff" points="443,-144 440,-148 419,-148 416,-144 361,-144 361,-108 443,-108 443,-144"/>
<text xml:space="preserve" text-anchor="middle" x="402" y="-122.5" font-family="Helvetica,sans-Serif" font-size="10.00" fill="#e0e0e0">exceptiongroup</text>
</g>
<!-- exceptiongroup&#45;&gt;_pytest -->
<g id="edge9" class="edge">
<title>exceptiongroup&#45;&gt;_pytest</title><style>.edge>path:hover{stroke-width:8}</style>
<path fill="none" stroke="#ffffff" d="M427.17,-144.38C444.92,-157.14 467.82,-171.88 479,-172"/>
</g>
<!-- iniconfig -->
<g id="node8" class="node">
<title>iniconfig</title><style>.edge>path:hover{stroke-width:8}</style>
<polygon fill="#4cc823" stroke="#ffffff" points="429,-90 426,-94 405,-94 402,-90 375,-90 375,-54 429,-54 429,-90"/>
<text xml:space="preserve" text-anchor="middle" x="402" y="-68.5" font-family="Helvetica,sans-Serif" font-size="10.00" fill="#e0e0e0">iniconfig</text>
</g>
<!-- iniconfig&#45;&gt;_pytest -->
<g id="edge10" class="edge">
<title>iniconfig&#45;&gt;_pytest</title><style>.edge>path:hover{stroke-width:8}</style>
<path fill="none" stroke="#ffffff" d="M480,-172C491.47,-172.12 503.97,-172.15 515.32,-172.15"/>
<polygon fill="#4cc823" stroke="#ffffff" points="515.14,-175.65 525.13,-172.13 515.12,-168.65 515.14,-175.65"/>
<path fill="none" stroke="#ffffff" d="M429.14,-86.75C434.13,-90.33 439.03,-94.46 443,-99 466.79,-126.25 442.83,-171.63 479,-172"/>
</g>
<!-- numpy&#45;&gt;_pytest -->
<g id="edge11" class="edge">
<title>numpy&#45;&gt;_pytest</title><style>.edge>path:hover{stroke-width:8}</style>
<path fill="none" stroke="#ffffff" d="M428.76,-291.64C433.78,-287.46 438.79,-282.82 443,-278 463.46,-254.58 453.07,-235.17 479,-218"/>
<path fill="none" stroke="#ffffff" d="M480,-218C492,-210.05 505.28,-201.59 517.18,-194.12"/>
<polygon fill="#5a5a5a" stroke="#ffffff" points="518.89,-197.18 525.52,-188.91 515.18,-191.24 518.89,-197.18"/>
</g>
<!-- pyloudnorm -->
<g id="node16" class="node">
<title>pyloudnorm</title><style>.edge>path:hover{stroke-width:8}</style>
<polygon fill="#5a5a5a" stroke="#ffffff" points="1218.65,-320 1215.65,-324 1194.65,-324 1191.65,-320 1152.4,-320 1152.4,-284 1218.65,-284 1218.65,-320"/>
<text xml:space="preserve" text-anchor="middle" x="1185.53" y="-298.5" font-family="Helvetica,sans-Serif" font-size="10.00" fill="#e0e0e0">pyloudnorm</text>
</g>
<!-- numpy&#45;&gt;pyloudnorm -->
<g id="edge12" class="edge">
<title>numpy&#45;&gt;pyloudnorm</title><style>.edge>path:hover{stroke-width:8}</style>
<path fill="none" stroke="#ffffff" d="M944.7,-478C965.86,-473.71 972.79,-472.78 989.4,-459 1011.61,-440.59 1004.87,-425.26 1025.4,-405 1060.01,-370.86 1107.66,-341.82 1141.78,-323.37"/>
<polygon fill="#5a5a5a" stroke="#ffffff" points="1143.38,-326.48 1150.57,-318.7 1140.09,-320.3 1143.38,-326.48"/>
<path fill="none" stroke="#ffffff" d="M836,-478C882.7,-469.78 896.26,-487.61 942.7,-478"/>
</g>
<!-- numpy&#45;&gt;scipy -->
<g id="edge13" class="edge">
<title>numpy&#45;&gt;scipy</title><style>.edge>path:hover{stroke-width:8}</style>
<path fill="none" stroke="#ffffff" d="M411.13,-328.24C422.53,-351.21 445.66,-389.54 479,-405"/>
<path fill="none" stroke="#ffffff" d="M480,-405C506.17,-417.13 490.99,-365.36 516,-351 638.78,-280.5 692.6,-339.21 834,-332"/>
</g>
<!-- src -->
<g id="node19" class="node">
<title>src</title><style>.edge>path:hover{stroke-width:8}</style>
<polygon fill="#8553b6" stroke="#ffffff" points="1345.65,-450 1342.65,-454 1321.65,-454 1318.65,-450 1291.65,-450 1291.65,-414 1345.65,-414 1345.65,-450"/>
<text xml:space="preserve" text-anchor="middle" x="1318.65" y="-428.5" font-family="Helvetica,sans-Serif" font-size="10.00" fill="#e0e0e0">src</text>
</g>
<!-- numpy&#45;&gt;src -->
<g id="edge14" class="edge">
<title>numpy&#45;&gt;src</title><style>.edge>path:hover{stroke-width:8}</style>
<path fill="none" stroke="#ffffff" d="M480,-218C544.47,-175.29 576.67,-218 654,-218 654,-218 654,-218 746,-218 833.42,-218 857.97,-196.49 942.7,-218"/>
</g>
<!-- tests_conftest -->
<g id="node20" class="node">
<title>tests_conftest</title><style>.edge>path:hover{stroke-width:8}</style>
<ellipse fill="#993db8" stroke="#ffffff" cx="943.7" cy="-432" rx="45.7" ry="18"/>
<text xml:space="preserve" text-anchor="middle" x="943.7" y="-428.5" font-family="Helvetica,sans-Serif" font-size="10.00" fill="#e0e0e0">tests.conftest</text>
</g>
<!-- numpy&#45;&gt;tests_conftest -->
<g id="edge15" class="edge">
<title>numpy&#45;&gt;tests_conftest</title><style>.edge>path:hover{stroke-width:8}</style>
<path fill="none" stroke="#ffffff" d="M836,-478C861.8,-475.3 888.6,-463.71 908.89,-452.84"/>
<polygon fill="#5a5a5a" stroke="#ffffff" points="910.52,-455.94 917.54,-448.01 907.11,-449.82 910.52,-455.94"/>
<path fill="none" stroke="#ffffff" d="M480,-405C506.06,-417.37 490.99,-444.64 516,-459 638.78,-529.5 693.18,-492.73 834,-478"/>
</g>
<!-- tests_test_main -->
<g id="node21" class="node">
<title>tests_test_main</title><style>.edge>path:hover{stroke-width:8}</style>
<ellipse fill="#7a3d8f" stroke="#ffffff" cx="1460.2" cy="-478" rx="41.54" ry="22.63"/>
<text xml:space="preserve" text-anchor="middle" x="1460.2" y="-480.5" font-family="Helvetica,sans-Serif" font-size="10.00" fill="#e0e0e0">tests.</text>
<text xml:space="preserve" text-anchor="middle" x="1460.2" y="-468.5" font-family="Helvetica,sans-Serif" font-size="10.00" fill="#e0e0e0">test_main</text>
</g>
<!-- numpy&#45;&gt;tests_test_main -->
<g id="edge16" class="edge">
<title>numpy&#45;&gt;tests_test_main</title><style>.edge>path:hover{stroke-width:8}</style>
<path fill="none" stroke="#ffffff" d="M944.7,-478C991.14,-468.39 1004.37,-471.94 1051.4,-478"/>
</g>
<!-- packaging -->
<g id="node10" class="node">
<title>packaging</title><style>.edge>path:hover{stroke-width:8}</style>
<polygon fill="#3bce60" stroke="#ffffff" points="325,-282 322,-286 301,-286 298,-282 264.75,-282 264.75,-246 325,-246 325,-282"/>
<text xml:space="preserve" text-anchor="middle" x="294.88" y="-260.5" font-family="Helvetica,sans-Serif" font-size="10.00" fill="#e0e0e0">packaging</text>
</g>
<!-- packaging&#45;&gt;_pytest -->
<g id="edge17" class="edge">
<title>packaging&#45;&gt;_pytest</title><style>.edge>path:hover{stroke-width:8}</style>
<path fill="none" stroke="#ffffff" d="M325.32,-267.87C357.3,-270.46 408.43,-269.71 443,-245 472.43,-223.97 442.83,-171.63 479,-172"/>
</g>
<!-- pluggy -->
<g id="node11" class="node">
<title>pluggy</title><style>.edge>path:hover{stroke-width:8}</style>
<polygon fill="#5a5a5a" stroke="#ffffff" points="429,-236 426,-240 405,-240 402,-236 375,-236 375,-200 429,-200 429,-236"/>
<text xml:space="preserve" text-anchor="middle" x="402" y="-214.5" font-family="Helvetica,sans-Serif" font-size="10.00" fill="#e0e0e0">pluggy</text>
</g>
<!-- pluggy&#45;&gt;_pytest -->
<g id="edge18" class="edge">
<title>pluggy&#45;&gt;_pytest</title><style>.edge>path:hover{stroke-width:8}</style>
<path fill="none" stroke="#ffffff" d="M426.8,-199.76C444.61,-186.86 467.74,-171.88 479,-172"/>
</g>
<!-- pycparser -->
<g id="node13" class="node">
<title>pycparser</title><style>.edge>path:hover{stroke-width:8}</style>
<polygon fill="#5a5a5a" stroke="#ffffff" points="583.38,-396 580.38,-400 559.38,-400 556.38,-396 524.63,-396 524.63,-360 583.38,-360 583.38,-396"/>
<text xml:space="preserve" text-anchor="middle" x="554" y="-374.5" font-family="Helvetica,sans-Serif" font-size="10.00" fill="#e0e0e0">pycparser</text>
</g>
<!-- pycparser&#45;&gt;cffi -->
<g id="edge20" class="edge">
<title>pycparser&#45;&gt;cffi</title><style>.edge>path:hover{stroke-width:8}</style>
<path fill="none" stroke="#ffffff" d="M656,-405C673.05,-402.5 691.35,-397.31 706.82,-392.15"/>
<polygon fill="#5a5a5a" stroke="#ffffff" points="707.8,-395.52 716.1,-388.93 705.5,-388.9 707.8,-395.52"/>
<path fill="none" stroke="#ffffff" d="M583.63,-392.38C603.2,-400.56 629.85,-408.54 654,-405"/>
</g>
<!-- pydub&#45;&gt;src -->
<g id="edge21" class="edge">
<title>pydub&#45;&gt;src</title><style>.edge>path:hover{stroke-width:8}</style>
<path fill="none" stroke="#ffffff" d="M1255.65,-440C1263.48,-441.37 1271.91,-441.3 1279.94,-440.5"/>
<polygon fill="#5a5a5a" stroke="#ffffff" points="1280.42,-443.97 1289.83,-439.11 1279.44,-437.04 1280.42,-443.97"/>
<path fill="none" stroke="#ffffff" d="M1212.83,-434.39C1225.52,-435.72 1240.93,-437.6 1254.65,-440"/>
</g>
<!-- pydub&#45;&gt;tests_test_main -->
<g id="edge22" class="edge">
<title>pydub&#45;&gt;tests_test_main</title><style>.edge>path:hover{stroke-width:8}</style>
<path fill="none" stroke="#ffffff" d="M1255.65,-440C1287.49,-445.57 1285.67,-473.32 1317.65,-478"/>
<path fill="none" stroke="#ffffff" d="M1319.65,-478C1346.92,-481.99 1354.51,-473.24 1381.65,-478"/>
</g>
<!-- pygments -->
<g id="node15" class="node">
<title>pygments</title><style>.edge>path:hover{stroke-width:8}</style>
<polygon fill="#5a5a5a" stroke="#ffffff" points="324.25,-190 321.25,-194 300.25,-194 297.25,-190 265.5,-190 265.5,-154 324.25,-154 324.25,-190"/>
<text xml:space="preserve" text-anchor="middle" x="294.88" y="-168.5" font-family="Helvetica,sans-Serif" font-size="10.00" fill="#e0e0e0">pygments</text>
</g>
<!-- pygments&#45;&gt;_pytest -->
<g id="edge23" class="edge">
<title>pygments&#45;&gt;_pytest</title><style>.edge>path:hover{stroke-width:8}</style>
<path fill="none" stroke="#ffffff" d="M324.43,-171.81C345.58,-171.71 375.09,-171.68 401,-172"/>
</g>
<!-- pyloudnorm&#45;&gt;src -->
<g id="edge24" class="edge">
<title>pyloudnorm&#45;&gt;src</title><style>.edge>path:hover{stroke-width:8}</style>
<path fill="none" stroke="#ffffff" d="M1205.65,-283.62C1222.13,-268.82 1244.77,-251.19 1254.65,-256"/>
</g>
<!-- pytest&#45;&gt;numpy -->
<g id="edge26" class="edge">
<title>pytest&#45;&gt;numpy</title><style>.edge>path:hover{stroke-width:8}</style>
<path fill="none" stroke="#ffffff" d="M717.78,-287.85C657.81,-292.07 510.5,-302.43 440.77,-307.34"/>
<polygon fill="#5a5a5a" stroke="#ffffff" points="440.71,-303.84 430.98,-308.03 441.2,-310.82 440.71,-303.84"/>
</g>
<!-- pytest&#45;&gt;scipy -->
<g id="edge27" class="edge">
<title>pytest&#45;&gt;scipy</title><style>.edge>path:hover{stroke-width:8}</style>
<path fill="none" stroke="#ffffff" d="M836,-332C899.12,-332 971.38,-317.58 1014.11,-307.52"/>
<polygon fill="#5a5a5a" stroke="#ffffff" points="1014.71,-310.98 1023.61,-305.23 1013.07,-304.17 1014.71,-310.98"/>
<path fill="none" stroke="#ffffff" d="M766.17,-304.35C783.09,-317.72 808.52,-333.3 834,-332"/>
</g>
<!-- pytest&#45;&gt;tests_conftest -->
<g id="edge28" class="edge">
<title>pytest&#45;&gt;tests_conftest</title><style>.edge>path:hover{stroke-width:8}</style>
<path fill="none" stroke="#ffffff" d="M763.04,-304.32C775.03,-316.75 791.78,-333.19 808,-346 839.61,-370.97 878.68,-395.27 906.59,-411.64"/>
<polygon fill="#5a5a5a" stroke="#ffffff" points="904.62,-414.54 915.03,-416.54 908.14,-408.49 904.62,-414.54"/>
</g>
<!-- scipy&#45;&gt;pyloudnorm -->
<g id="edge29" class="edge">
<title>scipy&#45;&gt;pyloudnorm</title><style>.edge>path:hover{stroke-width:8}</style>
<path fill="none" stroke="#ffffff" d="M1116.4,-256C1125.07,-254.84 1141.06,-265.34 1155.36,-276.59"/>
<polygon fill="#5a5a5a" stroke="#ffffff" points="1152.83,-279.05 1162.8,-282.65 1157.25,-273.62 1152.83,-279.05"/>
</g>
<!-- scipy&#45;&gt;src -->
<g id="edge30" class="edge">
<title>scipy&#45;&gt;src</title><style>.edge>path:hover{stroke-width:8}</style>
<path fill="none" stroke="#ffffff" d="M1070.98,-279.58C1082.44,-269.37 1098.39,-258.27 1115.4,-256"/>
<path fill="none" stroke="#ffffff" d="M1116.4,-256C1146.42,-252 1154.52,-251.98 1184.53,-256"/>
</g>
<!-- src&#45;&gt;tests_test_main -->
<g id="edge31" class="edge">
<title>src&#45;&gt;tests_test_main</title><style>.edge>path:hover{stroke-width:8}</style>
<path fill="none" stroke="#ffffff" d="M1382.65,-478C1390.48,-479.37 1398.83,-480.11 1407.03,-480.42"/>
<polygon fill="#8553b6" stroke="#ffffff" points="1406.88,-483.92 1416.94,-480.59 1407,-476.92 1406.88,-483.92"/>
<path fill="none" stroke="#ffffff" d="M1335.42,-450.27C1346.84,-461.69 1363.44,-474.8 1381.65,-478"/>
</g>
<!-- tests_conftest&#45;&gt;tests_test_main -->
<g id="edge32" class="edge">
<title>tests_conftest&#45;&gt;tests_test_main</title><style>.edge>path:hover{stroke-width:8}</style>
<path fill="none" stroke="#ffffff" d="M968.54,-447.27C989.43,-459.4 1021.11,-474.83 1051.4,-478"/>
<path fill="none" stroke="#ffffff" d="M1053.4,-478C1170.21,-490.22 1201.45,-460.99 1317.65,-478"/>
</g>
<!-- tomli -->
<g id="node22" class="node">
<title>tomli</title><style>.edge>path:hover{stroke-width:8}</style>
<polygon fill="#b653b6" stroke="#ffffff" points="321.88,-136 318.88,-140 297.88,-140 294.88,-136 267.88,-136 267.88,-100 321.88,-100 321.88,-136"/>
<text xml:space="preserve" text-anchor="middle" x="294.88" y="-114.5" font-family="Helvetica,sans-Serif" font-size="10.00" fill="#e0e0e0">tomli</text>
</g>
<!-- tomli&#45;&gt;_pytest -->
<g id="edge33" class="edge">
<title>tomli&#45;&gt;_pytest</title><style>.edge>path:hover{stroke-width:8}</style>
<path fill="none" stroke="#ffffff" d="M403,-172C436.78,-172.42 445.22,-171.65 479,-172"/>
<path fill="none" stroke="#ffffff" d="M317.2,-136.4C337.37,-151.89 369.2,-171.6 401,-172"/>
</g>
<!-- tqdm&#45;&gt;src -->
<g id="edge34" class="edge">
<title>tqdm&#45;&gt;src</title><style>.edge>path:hover{stroke-width:8}</style>
<path fill="none" stroke="#ffffff" d="M944.7,-218C1020.22,-233.32 1040.47,-228.9 1116.4,-242 1146.86,-247.25 1153.89,-251.89 1184.53,-256"/>
<path fill="none" stroke="#ffffff" d="M1255.65,-256C1308.4,-281.66 1317.55,-359.06 1318.39,-402.18"/>
<polygon fill="#5a5a5a" stroke="#ffffff" points="1314.88,-402.11 1318.42,-412.1 1321.88,-402.08 1314.88,-402.11"/>
<path fill="none" stroke="#ffffff" d="M682.35,-123.28C722.84,-120.22 801.98,-118.65 862,-145 906.29,-164.44 896.09,-205.09 942.7,-218"/>
<path fill="none" stroke="#ffffff" d="M1186.53,-256C1216.77,-257.52 1227.43,-242.76 1254.65,-256"/>
</g>
<!-- typing_extensions -->
<g id="node24" class="node">
<title>typing_extensions</title><style>.edge>path:hover{stroke-width:8}</style>
<polygon fill="#f91085" stroke="#ffffff" points="189.88,-236 186.88,-240 165.88,-240 162.88,-236 95.12,-236 95.12,-200 189.88,-200 189.88,-236"/>
<text xml:space="preserve" text-anchor="middle" x="142.5" y="-214.5" font-family="Helvetica,sans-Serif" font-size="10.00" fill="#e0e0e0">typing_extensions</text>
</g>
<!-- typing_extensions&#45;&gt;_pytest -->
<g id="edge35" class="edge">
<title>typing_extensions&#45;&gt;_pytest</title><style>.edge>path:hover{stroke-width:8}</style>
<path fill="none" stroke="#ffffff" d="M169,-236.39C185.01,-246.76 206.58,-258.68 227.75,-264"/>
<path fill="none" stroke="#ffffff" d="M228.75,-264C248.15,-268.87 247.64,-247.36 264.75,-237 293.44,-219.62 367.46,-171.58 401,-172"/>
</g>
<!-- typing_extensions&#45;&gt;numpy -->
<g id="edge36" class="edge">
<title>typing_extensions&#45;&gt;numpy</title><style>.edge>path:hover{stroke-width:8}</style>
<path fill="none" stroke="#ffffff" d="M295.88,-310C318.14,-313.74 343.44,-313.86 363.64,-312.99"/>
<polygon fill="#f91085" stroke="#ffffff" points="363.57,-316.5 373.37,-312.47 363.19,-309.51 363.57,-316.5"/>
<path fill="none" stroke="#ffffff" d="M228.75,-264C263.12,-272.64 258.93,-304.14 293.88,-310"/>
</g>
<!-- typing_extensions&#45;&gt;packaging -->
<g id="edge37" class="edge">
<title>typing_extensions&#45;&gt;packaging</title><style>.edge>path:hover{stroke-width:8}</style>
<path fill="none" stroke="#ffffff" d="M228.75,-264C236.5,-265.95 244.94,-266.82 253.09,-267.06"/>
<polygon fill="#f91085" stroke="#ffffff" points="252.82,-270.56 262.81,-267.04 252.8,-263.56 252.82,-270.56"/>
</g>
<!-- win32pdh -->
<g id="node25" class="node">
<title>win32pdh</title><style>.edge>path:hover{stroke-width:8}</style>
<polygon fill="#b6536c" stroke="#ffffff" points="57.25,-282 54.25,-286 33.25,-286 30.25,-282 0,-282 0,-246 57.25,-246 57.25,-282"/>
<text xml:space="preserve" text-anchor="middle" x="28.62" y="-260.5" font-family="Helvetica,sans-Serif" font-size="10.00" fill="#e0e0e0">win32pdh</text>
</g>
<!-- win32pdh&#45;&gt;numpy -->
<g id="edge38" class="edge">
<title>win32pdh&#45;&gt;numpy</title><style>.edge>path:hover{stroke-width:8}</style>
<path fill="none" stroke="#ffffff" d="M228.75,-310C257.45,-313.78 265.33,-305.21 293.88,-310"/>
<path fill="none" stroke="#ffffff" d="M57.66,-262.94C90.87,-262.64 147.27,-265.23 191.75,-283 210.32,-290.42 207.92,-307.39 227.75,-310"/>
</g>
</g>
</svg>

